<?xml version="1.0" encoding="UTF-8"?>
<svg version="1.1" xmlns="http://www.w3.org/2000/svg" width="423" height="423">
<path d="M0 0 C8.98514802 -0.22317322 17.92304601 0.41304905 26.87191772 1.17126465 C28.27792142 1.28823431 29.68454999 1.39793523 31.09170532 1.50012207 C33.0955263 1.64900802 35.09673612 1.83182027 37.09765625 2.015625 C38.2683667 2.11512451 39.43907715 2.21462402 40.64526367 2.31713867 C44.62776264 3.3797744 46.28246372 4.94190169 48.8046875 8.16015625 C48.8046875 11.53849619 48.65758355 13.89335477 46.7421875 16.73828125 C43.76275788 18.92479815 40.34295457 19.4517178 36.8046875 20.28515625 C6.77729286 28.05333132 -20.7477453 48.32723087 -37.3828125 74.47265625 C-47.91950371 92.44320935 -53.81309424 109.97683777 -59.1953125 130.16015625 C-26.8553125 130.16015625 5.4846875 130.16015625 38.8046875 130.16015625 C39.7946875 128.18015625 39.7946875 128.18015625 40.8046875 126.16015625 C42.66576883 124.18328686 44.53745267 122.28859711 46.4921875 120.41015625 C49.90807854 117.06704052 53.27122003 113.74485695 56.3671875 110.09765625 C59.62119175 106.27081995 63.16383524 102.7621763 66.74487305 99.24609375 C69.54850397 96.47592598 72.1611356 93.62761716 74.6796875 90.59765625 C77.14937703 87.68271019 79.06585019 86.25981428 82.8046875 85.16015625 C83.1346875 84.50015625 83.4646875 83.84015625 83.8046875 83.16015625 C97.6646875 83.65515625 97.6646875 83.65515625 111.8046875 84.16015625 C112.4646875 82.51015625 113.1246875 80.86015625 113.8046875 79.16015625 C117.91767945 74.70194915 122.5117899 72.27391827 128.57421875 71.9921875 C135.2338231 72.49369886 140.16651696 75.52198571 144.8046875 80.16015625 C148.52938703 85.3747356 148.7183251 90.9755325 147.8046875 97.16015625 C145.80876437 102.6304641 142.17006718 106.49569963 137.109375 109.3125 C131.20159014 111.48536325 125.06194611 111.06021882 119.3671875 108.47265625 C116.07213757 106.57140567 113.85521057 104.40681778 111.8046875 101.16015625 C111.8046875 100.50015625 111.8046875 99.84015625 111.8046875 99.16015625 C96.549791 98.09044522 96.549791 98.09044522 82.35546875 102.171875 C80.18334632 104.71836682 78.50775157 107.28414854 76.8046875 110.16015625 C75.47260531 111.57677442 74.09764428 112.95449905 72.6796875 114.28515625 C70.1419602 116.78291934 67.74508895 119.33024801 65.4296875 122.03515625 C61.88745804 126.16100246 58.04450348 129.9401323 54.171875 133.75390625 C52.11927163 135.84038097 50.22654899 137.96552091 48.3671875 140.22265625 C45.78504814 143.18266966 44.6909421 144.02790487 40.82695484 144.29882145 C40.0701628 144.305274 39.31337076 144.31172655 38.53364563 144.31837463 C37.22747284 144.33305786 37.22747284 144.33305786 35.89491272 144.34803772 C34.46640236 144.35667091 34.46640236 144.35667091 33.0090332 144.36547852 C32.00397736 144.37537811 30.99892151 144.38527771 29.96340942 144.39547729 C26.63578663 144.42710703 23.30814956 144.45185564 19.98046875 144.4765625 C17.67546718 144.49713075 15.37046939 144.51812718 13.06547546 144.53953552 C6.99428366 144.59476951 0.92305774 144.64417298 -5.14819336 144.69238281 C-11.34166505 144.74258811 -17.53508712 144.79827925 -23.72851562 144.85351562 C-35.8840722 144.96111345 -48.03967184 145.06255486 -60.1953125 145.16015625 C-60.2494505 147.40989072 -60.28816741 149.66000008 -60.3203125 151.91015625 C-60.34351563 153.163125 -60.36671875 154.41609375 -60.390625 155.70703125 C-60.20472631 158.99372003 -59.73545887 160.37830018 -58.1953125 163.16015625 C-43.58298644 163.30048364 -28.97074988 163.4062038 -14.35788631 163.47102928 C-7.57242713 163.50193269 -0.78738726 163.54404444 5.99780273 163.61279297 C12.54651246 163.67911367 19.09495029 163.71386822 25.64398003 163.72941971 C28.14186902 163.74050163 30.63973431 163.76214227 33.13743782 163.79453659 C36.63780234 163.83812744 40.13637039 163.84408882 43.63696289 163.84130859 C44.66842941 163.86288025 45.69989594 163.8844519 46.76261902 163.90667725 C52.82243772 163.85463627 56.13303215 162.99698635 60.47035885 158.65966225 C60.9106873 158.16482527 61.35101576 157.66998829 61.8046875 157.16015625 C62.46597656 156.44730469 63.12726563 155.73445312 63.80859375 155 C64.32292969 154.37222656 64.83726562 153.74445313 65.3671875 153.09765625 C73.03740973 144.12040064 73.03740973 144.12040064 78.8046875 143.16015625 C81.18844996 143.07201828 83.57457316 143.04251812 85.95996094 143.04663086 C86.67255569 143.04648483 87.38515045 143.04633881 88.11933899 143.04618835 C90.46761145 143.04688334 92.81580395 143.05465631 95.1640625 143.0625 C96.79502316 143.06436565 98.42598438 143.06578886 100.0569458 143.06678772 C104.34443719 143.07060131 108.63189458 143.08042171 112.91937256 143.0914917 C117.29650411 143.10173072 121.67364117 143.10629068 126.05078125 143.11132812 C134.63543225 143.12204502 143.22005564 143.13910753 151.8046875 143.16015625 C152.0944043 142.21688477 152.38412109 141.27361328 152.68261719 140.30175781 C154.79671242 134.38265915 160.22137623 130.50797083 165.6796875 127.66015625 C174.87639871 126.18868246 182.00076015 126.70697409 189.8046875 132.16015625 C195.70271631 137.52089051 198.28152099 143.181867 198.8046875 151.16015625 C198.0149917 159.05711423 195.81071926 164.2877259 189.9921875 169.84765625 C183.08346389 174.8598675 177.17170531 176.04026043 168.8046875 175.16015625 C163.11476067 173.8989869 158.90193759 171.35052566 154.8046875 167.16015625 C154.03309656 165.79405812 153.30948501 164.39989292 152.6328125 162.984375 C152.28637695 162.26725342 151.93994141 161.55013184 151.58300781 160.8112793 C151.19773926 159.99397339 151.19773926 159.99397339 150.8046875 159.16015625 C141.80762296 158.78679762 132.81328203 158.50388306 123.81011868 158.3311615 C119.62751747 158.24818623 115.45027001 158.13604329 111.27075195 157.953125 C91.78693268 156.26667458 91.78693268 156.26667458 74.25048828 162.72265625 C70.90989877 165.96573551 68.19716381 169.47384074 65.83045959 173.48022461 C64.8046875 175.16015625 64.8046875 175.16015625 62.8046875 177.16015625 C56.18073178 178.50349104 49.19726727 178.30465753 42.46484375 178.28955078 C41.48458221 178.2913031 40.50432068 178.29305542 39.49435425 178.29486084 C36.28528014 178.29922718 33.07626208 178.29635985 29.8671875 178.29296875 C27.61857086 178.29364329 25.36995429 178.29461456 23.12133789 178.29586792 C18.4210541 178.29733783 13.72078938 178.2952131 9.02050781 178.29052734 C3.01543153 178.28483051 -2.98960004 178.2881133 -8.99467468 178.29409981 C-13.63424004 178.29772451 -18.27379491 178.29655806 -22.9133606 178.29397202 C-25.12680059 178.29330803 -27.34024156 178.29411258 -29.55368042 178.29645157 C-32.65430195 178.29900953 -35.75485247 178.29509345 -38.85546875 178.28955078 C-39.75758087 178.29157501 -40.65969299 178.29359924 -41.58914185 178.29568481 C-47.5108448 178.27621262 -53.31453871 177.85076725 -59.1953125 177.16015625 C-58.99566895 177.81459717 -58.79602539 178.46903809 -58.59033203 179.14331055 C-57.78889964 181.77299331 -56.99217194 184.40408431 -56.1953125 187.03515625 C-55.90914062 187.97230469 -55.62296875 188.90945312 -55.328125 189.875 C-55.05742187 190.77089844 -54.78671875 191.66679687 -54.5078125 192.58984375 C-54.13076172 193.83096924 -54.13076172 193.83096924 -53.74609375 195.09716797 C-53.1953125 197.16015625 -53.1953125 197.16015625 -53.1953125 199.16015625 C0.9246875 199.16015625 55.0446875 199.16015625 110.8046875 199.16015625 C111.4646875 197.84015625 112.1246875 196.52015625 112.8046875 195.16015625 C114.42578125 193.4921875 114.42578125 193.4921875 116.2421875 191.97265625 C116.83902344 191.46347656 117.43585938 190.95429688 118.05078125 190.4296875 C122.40686404 187.27662089 127.67341063 187.61962115 132.8046875 188.16015625 C138.70140118 189.94549344 142.42486974 193.09042961 145.8046875 198.16015625 C148.05000391 203.5693276 148.45839233 208.55486602 146.8046875 214.16015625 C144.21413886 218.87397102 140.92920431 223.22422768 135.8046875 225.16015625 C129.10022424 226.50316388 122.73473447 227.00562339 116.8046875 223.16015625 C113.96736109 220.47770573 111.55511216 217.66100558 109.8046875 214.16015625 C58.3246875 214.16015625 6.8446875 214.16015625 -46.1953125 214.16015625 C-40.81983499 225.6146753 -40.81983499 225.6146753 -33.1953125 236.16015625 C-29.77297551 237.10016736 -26.52089988 237.01662014 -22.99243164 236.90722656 C-21.96746078 236.90342987 -20.94248993 236.89963318 -19.88645935 236.89572144 C-16.49998933 236.87555917 -13.11628198 236.80649563 -9.73046875 236.73828125 C-7.37547057 236.71759992 -5.02043886 236.70045795 -2.66539001 236.68670654 C3.53561687 236.64297519 9.73542493 236.55986861 15.93585205 236.46594238 C25.85645208 236.32054482 35.77750329 236.22713112 45.69882393 236.14809418 C49.16352442 236.11371298 52.62740949 236.0580141 56.09178162 235.99981689 C58.21865148 235.97613207 60.34552816 235.95304891 62.47241211 235.93066406 C63.43416351 235.90888092 64.39591492 235.88709778 65.3868103 235.86465454 C71.37664694 235.8244586 75.92866323 236.41270718 80.46484375 240.74609375 C80.92761719 241.33648437 81.39039063 241.926875 81.8671875 242.53515625 C84.1469456 245.3255389 86.51093283 247.87184325 89.140625 250.328125 C89.73222412 250.88773926 90.32382324 251.44735352 90.93334961 252.02392578 C92.12131218 253.1395748 93.322422 254.24141888 94.53735352 255.32763672 C97.64510163 258.28042912 98.71569425 259.50867131 99.31640625 263.90625 C98.8046875 267.16015625 98.8046875 267.16015625 96.6796875 269.66015625 C93.8046875 271.16015625 93.8046875 271.16015625 90.9921875 271.34765625 C85.36387708 269.25083472 81.30434996 265.12716833 77.69181824 260.38883972 C73.85275834 255.6923951 70.6159116 252.15161837 64.42227173 251.19302368 C59.10614584 250.74918787 53.80592532 250.92079345 48.48046875 251.0859375 C46.52325336 251.10648751 44.56598087 251.12212969 42.60868835 251.13310242 C37.48947297 251.17484229 32.37376295 251.28265206 27.25592041 251.40484619 C22.0207053 251.51794923 16.78491625 251.56773366 11.54882812 251.62304688 C1.29925201 251.74055623 -8.94773732 251.92796282 -19.1953125 252.16015625 C-17.43629754 253.77223496 -15.67557409 255.38237631 -13.91381836 256.99145508 C-13.41846336 257.4457917 -12.92310837 257.90012833 -12.41274261 258.36823273 C-7.03594088 263.27334846 -1.31033276 267.21379215 4.8046875 271.16015625 C5.75988281 271.77761719 6.71507812 272.39507812 7.69921875 273.03125 C37.77613279 291.50530527 74.71995073 296.29468114 108.89453125 288.4453125 C135.65320228 281.73838622 161.61450328 267.4224074 178.82421875 245.61328125 C183.16024389 240.24242565 183.16024389 240.24242565 186.7421875 239.78515625 C190.14562907 240.2019042 191.47987263 240.66313287 193.8046875 243.16015625 C195.80003321 248.27138665 193.60700275 252.61506208 191.8046875 257.47265625 C191.48290527 258.36057861 191.16112305 259.24850098 190.82958984 260.16333008 C183.57972463 279.87865102 174.62100369 298.44852905 161.8046875 315.16015625 C161.15628906 316.03285156 160.50789063 316.90554688 159.83984375 317.8046875 C129.26634068 357.21726274 83.17429747 382.01384616 34.06665039 388.87792969 C-19.13396362 395.51580446 -71.97269239 381.1122355 -114.23828125 348.3671875 C-154.6910166 316.14280414 -180.18769774 268.4344497 -186.1953125 217.16015625 C-186.30617187 216.27585938 -186.41703125 215.3915625 -186.53125 214.48046875 C-191.55054868 166.59364618 -179.02111959 115.31964473 -149.1953125 77.16015625 C-148.46828125 76.22300781 -147.74125 75.28585938 -146.9921875 74.3203125 C-138.04362107 63.10241538 -128.59249643 52.91633756 -117.1953125 44.16015625 C-116.18855469 43.34933594 -115.18179688 42.53851563 -114.14453125 41.703125 C-81.72780008 15.75874456 -41.2057264 2.0653237 0 0 Z M124.4921875 87.84765625 C122.53536481 90.03667586 122.53536481 90.03667586 122.8671875 92.78515625 C123.67124296 95.48305386 123.67124296 95.48305386 126.8046875 97.16015625 C130.63217655 96.97783033 130.63217655 96.97783033 133.8046875 95.16015625 C134.13807346 91.70203456 134.13807346 91.70203456 133.8046875 88.16015625 C130.13860782 85.71610313 128.16682188 85.1661663 124.4921875 87.84765625 Z M165.8046875 146.16015625 C164.23533156 149.29886813 164.45267647 151.69871447 164.8046875 155.16015625 C166.72135417 158.24348958 166.72135417 158.24348958 169.8046875 160.16015625 C173.95362475 160.66967486 177.36668358 160.70682582 180.8046875 158.16015625 C183.1067824 154.93722339 183.27979404 152.04019301 182.8046875 148.16015625 C181.00474976 145.46024963 179.7209145 143.61826975 176.8046875 142.16015625 C171.68949745 141.5918018 169.47627167 142.59347449 165.8046875 146.16015625 Z M122.8046875 204.16015625 C121.72826041 206.0486598 121.72826041 206.0486598 121.8046875 208.16015625 C122.74523734 210.52565501 122.74523734 210.52565501 124.8046875 212.16015625 C127.8046875 212.82682292 127.8046875 212.82682292 130.8046875 212.16015625 C132.8832483 210.58319993 132.8832483 210.58319993 133.8046875 208.16015625 C133.81103996 205.52478117 133.81103996 205.52478117 132.8046875 203.16015625 C128.46262638 200.26544884 126.49025646 200.72029189 122.8046875 204.16015625 Z " fill="#CFD6DA" transform="translate(214.1953125,18.83984375)"/>
<path d="M0 0 C8.98514802 -0.22317322 17.92304601 0.41304905 26.87191772 1.17126465 C28.27792142 1.28823431 29.68454999 1.39793523 31.09170532 1.50012207 C33.0955263 1.64900802 35.09673612 1.83182027 37.09765625 2.015625 C38.2683667 2.11512451 39.43907715 2.21462402 40.64526367 2.31713867 C44.62776264 3.3797744 46.28246372 4.94190169 48.8046875 8.16015625 C48.8046875 11.53849619 48.65758355 13.89335477 46.7421875 16.73828125 C43.76275788 18.92479815 40.34295457 19.4517178 36.8046875 20.28515625 C6.77729286 28.05333132 -20.7477453 48.32723087 -37.3828125 74.47265625 C-47.91950371 92.44320935 -53.81309424 109.97683777 -59.1953125 130.16015625 C-26.8553125 130.16015625 5.4846875 130.16015625 38.8046875 130.16015625 C39.7946875 128.18015625 39.7946875 128.18015625 40.8046875 126.16015625 C42.66576883 124.18328686 44.53745267 122.28859711 46.4921875 120.41015625 C49.90807854 117.06704052 53.27122003 113.74485695 56.3671875 110.09765625 C59.62119175 106.27081995 63.16383524 102.7621763 66.74487305 99.24609375 C69.54850397 96.47592598 72.1611356 93.62761716 74.6796875 90.59765625 C77.14937703 87.68271019 79.06585019 86.25981428 82.8046875 85.16015625 C83.1346875 84.50015625 83.4646875 83.84015625 83.8046875 83.16015625 C97.6646875 83.65515625 97.6646875 83.65515625 111.8046875 84.16015625 C112.4646875 82.51015625 113.1246875 80.86015625 113.8046875 79.16015625 C117.91767945 74.70194915 122.5117899 72.27391827 128.57421875 71.9921875 C135.2338231 72.49369886 140.16651696 75.52198571 144.8046875 80.16015625 C148.52938703 85.3747356 148.7183251 90.9755325 147.8046875 97.16015625 C145.80876437 102.6304641 142.17006718 106.49569963 137.109375 109.3125 C131.20159014 111.48536325 125.06194611 111.06021882 119.3671875 108.47265625 C116.07213757 106.57140567 113.85521057 104.40681778 111.8046875 101.16015625 C111.8046875 100.50015625 111.8046875 99.84015625 111.8046875 99.16015625 C96.549791 98.09044522 96.549791 98.09044522 82.35546875 102.171875 C80.18334632 104.71836682 78.50775157 107.28414854 76.8046875 110.16015625 C75.47260531 111.57677442 74.09764428 112.95449905 72.6796875 114.28515625 C70.1419602 116.78291934 67.74508895 119.33024801 65.4296875 122.03515625 C61.88745804 126.16100246 58.04450348 129.9401323 54.171875 133.75390625 C52.11927163 135.84038097 50.22654899 137.96552091 48.3671875 140.22265625 C45.78504814 143.18266966 44.6909421 144.02790487 40.82695484 144.29882145 C40.0701628 144.305274 39.31337076 144.31172655 38.53364563 144.31837463 C37.22747284 144.33305786 37.22747284 144.33305786 35.89491272 144.34803772 C34.46640236 144.35667091 34.46640236 144.35667091 33.0090332 144.36547852 C32.00397736 144.37537811 30.99892151 144.38527771 29.96340942 144.39547729 C26.63578663 144.42710703 23.30814956 144.45185564 19.98046875 144.4765625 C17.67546718 144.49713075 15.37046939 144.51812718 13.06547546 144.53953552 C6.99428366 144.59476951 0.92305774 144.64417298 -5.14819336 144.69238281 C-11.34166505 144.74258811 -17.53508712 144.79827925 -23.72851562 144.85351562 C-35.8840722 144.96111345 -48.03967184 145.06255486 -60.1953125 145.16015625 C-60.2494505 147.40989072 -60.28816741 149.66000008 -60.3203125 151.91015625 C-60.34351563 153.163125 -60.36671875 154.41609375 -60.390625 155.70703125 C-60.20472631 158.99372003 -59.73545887 160.37830018 -58.1953125 163.16015625 C-43.58298644 163.30048364 -28.97074988 163.4062038 -14.35788631 163.47102928 C-7.57242713 163.50193269 -0.78738726 163.54404444 5.99780273 163.61279297 C12.54651246 163.67911367 19.09495029 163.71386822 25.64398003 163.72941971 C28.14186902 163.74050163 30.63973431 163.76214227 33.13743782 163.79453659 C36.63780234 163.83812744 40.13637039 163.84408882 43.63696289 163.84130859 C44.66842941 163.86288025 45.69989594 163.8844519 46.76261902 163.90667725 C52.82243772 163.85463627 56.13303215 162.99698635 60.47035885 158.65966225 C60.9106873 158.16482527 61.35101576 157.66998829 61.8046875 157.16015625 C62.46597656 156.44730469 63.12726563 155.73445312 63.80859375 155 C64.32292969 154.37222656 64.83726562 153.74445313 65.3671875 153.09765625 C73.03740973 144.12040064 73.03740973 144.12040064 78.8046875 143.16015625 C81.18844996 143.07201828 83.57457316 143.04251812 85.95996094 143.04663086 C86.67255569 143.04648483 87.38515045 143.04633881 88.11933899 143.04618835 C90.46761145 143.04688334 92.81580395 143.05465631 95.1640625 143.0625 C96.79502316 143.06436565 98.42598438 143.06578886 100.0569458 143.06678772 C104.34443719 143.07060131 108.63189458 143.08042171 112.91937256 143.0914917 C117.29650411 143.10173072 121.67364117 143.10629068 126.05078125 143.11132812 C134.63543225 143.12204502 143.22005564 143.13910753 151.8046875 143.16015625 C152.0944043 142.21688477 152.38412109 141.27361328 152.68261719 140.30175781 C154.79671242 134.38265915 160.22137623 130.50797083 165.6796875 127.66015625 C174.87639871 126.18868246 182.00076015 126.70697409 189.8046875 132.16015625 C195.70271631 137.52089051 198.28152099 143.181867 198.8046875 151.16015625 C198.0149917 159.05711423 195.81071926 164.2877259 189.9921875 169.84765625 C183.08346389 174.8598675 177.17170531 176.04026043 168.8046875 175.16015625 C163.11476067 173.8989869 158.90193759 171.35052566 154.8046875 167.16015625 C154.03309656 165.79405812 153.30948501 164.39989292 152.6328125 162.984375 C152.28637695 162.26725342 151.93994141 161.55013184 151.58300781 160.8112793 C151.19773926 159.99397339 151.19773926 159.99397339 150.8046875 159.16015625 C141.80762296 158.78679762 132.81328203 158.50388306 123.81011868 158.3311615 C119.62751747 158.24818623 115.45027001 158.13604329 111.27075195 157.953125 C91.78693268 156.26667458 91.78693268 156.26667458 74.25048828 162.72265625 C70.90989877 165.96573551 68.19716381 169.47384074 65.83045959 173.48022461 C64.8046875 175.16015625 64.8046875 175.16015625 62.8046875 177.16015625 C56.18073178 178.50349104 49.19726727 178.30465753 42.46484375 178.28955078 C41.48458221 178.2913031 40.50432068 178.29305542 39.49435425 178.29486084 C36.28528014 178.29922718 33.07626208 178.29635985 29.8671875 178.29296875 C27.61857086 178.29364329 25.36995429 178.29461456 23.12133789 178.29586792 C18.4210541 178.29733783 13.72078938 178.2952131 9.02050781 178.29052734 C3.01543153 178.28483051 -2.98960004 178.2881133 -8.99467468 178.29409981 C-13.63424004 178.29772451 -18.27379491 178.29655806 -22.9133606 178.29397202 C-25.12680059 178.29330803 -27.34024156 178.29411258 -29.55368042 178.29645157 C-32.65430195 178.29900953 -35.75485247 178.29509345 -38.85546875 178.28955078 C-39.75758087 178.29157501 -40.65969299 178.29359924 -41.58914185 178.29568481 C-47.5108448 178.27621262 -53.31453871 177.85076725 -59.1953125 177.16015625 C-58.99566895 177.81459717 -58.79602539 178.46903809 -58.59033203 179.14331055 C-57.78889964 181.77299331 -56.99217194 184.40408431 -56.1953125 187.03515625 C-55.90914062 187.97230469 -55.62296875 188.90945312 -55.328125 189.875 C-55.05742187 190.77089844 -54.78671875 191.66679687 -54.5078125 192.58984375 C-54.13076172 193.83096924 -54.13076172 193.83096924 -53.74609375 195.09716797 C-53.1953125 197.16015625 -53.1953125 197.16015625 -53.1953125 199.16015625 C0.9246875 199.16015625 55.0446875 199.16015625 110.8046875 199.16015625 C111.4646875 197.84015625 112.1246875 196.52015625 112.8046875 195.16015625 C114.42578125 193.4921875 114.42578125 193.4921875 116.2421875 191.97265625 C116.83902344 191.46347656 117.43585938 190.95429688 118.05078125 190.4296875 C122.40686404 187.27662089 127.67341063 187.61962115 132.8046875 188.16015625 C138.70140118 189.94549344 142.42486974 193.09042961 145.8046875 198.16015625 C148.05000391 203.5693276 148.45839233 208.55486602 146.8046875 214.16015625 C144.21413886 218.87397102 140.92920431 223.22422768 135.8046875 225.16015625 C129.10022424 226.50316388 122.73473447 227.00562339 116.8046875 223.16015625 C113.96736109 220.47770573 111.55511216 217.66100558 109.8046875 214.16015625 C58.3246875 214.16015625 6.8446875 214.16015625 -46.1953125 214.16015625 C-40.81983499 225.6146753 -40.81983499 225.6146753 -33.1953125 236.16015625 C-29.77297551 237.10016736 -26.52089988 237.01662014 -22.99243164 236.90722656 C-21.96746078 236.90342987 -20.94248993 236.89963318 -19.88645935 236.89572144 C-16.49998933 236.87555917 -13.11628198 236.80649563 -9.73046875 236.73828125 C-7.37547057 236.71759992 -5.02043886 236.70045795 -2.66539001 236.68670654 C3.53561687 236.64297519 9.73542493 236.55986861 15.93585205 236.46594238 C25.85645208 236.32054482 35.77750329 236.22713112 45.69882393 236.14809418 C49.16352442 236.11371298 52.62740949 236.0580141 56.09178162 235.99981689 C58.21865148 235.97613207 60.34552816 235.95304891 62.47241211 235.93066406 C63.43416351 235.90888092 64.39591492 235.88709778 65.3868103 235.86465454 C71.37664694 235.8244586 75.92866323 236.41270718 80.46484375 240.74609375 C80.92761719 241.33648437 81.39039063 241.926875 81.8671875 242.53515625 C84.1469456 245.3255389 86.51093283 247.87184325 89.140625 250.328125 C89.73222412 250.88773926 90.32382324 251.44735352 90.93334961 252.02392578 C92.12131218 253.1395748 93.322422 254.24141888 94.53735352 255.32763672 C97.64510163 258.28042912 98.71569425 259.50867131 99.31640625 263.90625 C98.8046875 267.16015625 98.8046875 267.16015625 96.6796875 269.66015625 C93.8046875 271.16015625 93.8046875 271.16015625 90.9921875 271.34765625 C85.36387708 269.25083472 81.30434996 265.12716833 77.69181824 260.38883972 C73.85275834 255.6923951 70.6159116 252.15161837 64.42227173 251.19302368 C59.10614584 250.74918787 53.80592532 250.92079345 48.48046875 251.0859375 C46.52325336 251.10648751 44.56598087 251.12212969 42.60868835 251.13310242 C37.48947297 251.17484229 32.37376295 251.28265206 27.25592041 251.40484619 C22.0207053 251.51794923 16.78491625 251.56773366 11.54882812 251.62304688 C1.29925201 251.74055623 -8.94773732 251.92796282 -19.1953125 252.16015625 C-17.43629754 253.77223496 -15.67557409 255.38237631 -13.91381836 256.99145508 C-13.41846336 257.4457917 -12.92310837 257.90012833 -12.41274261 258.36823273 C-7.03594088 263.27334846 -1.31033276 267.21379215 4.8046875 271.16015625 C5.75988281 271.77761719 6.71507812 272.39507812 7.69921875 273.03125 C37.77613279 291.50530527 74.71995073 296.29468114 108.89453125 288.4453125 C135.65320228 281.73838622 161.61450328 267.4224074 178.82421875 245.61328125 C183.16024389 240.24242565 183.16024389 240.24242565 186.7421875 239.78515625 C190.14562907 240.2019042 191.47987263 240.66313287 193.8046875 243.16015625 C195.80003321 248.27138665 193.60700275 252.61506208 191.8046875 257.47265625 C191.48290527 258.36057861 191.16112305 259.24850098 190.82958984 260.16333008 C183.57972463 279.87865102 174.62100369 298.44852905 161.8046875 315.16015625 C161.15628906 316.03285156 160.50789063 316.90554688 159.83984375 317.8046875 C129.26634068 357.21726274 83.17429747 382.01384616 34.06665039 388.87792969 C-19.13396362 395.51580446 -71.97269239 381.1122355 -114.23828125 348.3671875 C-154.6910166 316.14280414 -180.18769774 268.4344497 -186.1953125 217.16015625 C-186.30617187 216.27585938 -186.41703125 215.3915625 -186.53125 214.48046875 C-191.55054868 166.59364618 -179.02111959 115.31964473 -149.1953125 77.16015625 C-148.46828125 76.22300781 -147.74125 75.28585938 -146.9921875 74.3203125 C-138.04362107 63.10241538 -128.59249643 52.91633756 -117.1953125 44.16015625 C-116.18855469 43.34933594 -115.18179688 42.53851563 -114.14453125 41.703125 C-81.72780008 15.75874456 -41.2057264 2.0653237 0 0 Z M-33.1953125 19.16015625 C-33.89527344 19.32032227 -34.59523437 19.48048828 -35.31640625 19.64550781 C-74.25492508 28.72473671 -112.30579067 52.14926663 -136.5703125 84.16015625 C-137.41275513 85.27100586 -137.41275513 85.27100586 -138.2722168 86.40429688 C-155.38778089 109.31963265 -165.56087163 135.02321111 -170.1953125 163.16015625 C-170.37336426 164.21887939 -170.55141602 165.27760254 -170.73486328 166.3684082 C-172.07192997 174.89205897 -172.58138022 183.22424556 -172.5703125 191.84765625 C-172.57043335 192.50780731 -172.5705542 193.16795837 -172.57067871 193.84811401 C-172.52272117 212.48937861 -170.40880323 231.50399943 -164.1953125 249.16015625 C-163.95441895 249.86479004 -163.71352539 250.56942383 -163.46533203 251.29541016 C-156.11903765 272.68648781 -146.64371841 291.65592732 -132.1953125 309.16015625 C-131.79199707 309.65225586 -131.38868164 310.14435547 -130.97314453 310.65136719 C-121.11579313 322.64441803 -110.67676799 332.9131532 -98.1953125 342.16015625 C-97.63666504 342.57910156 -97.07801758 342.99804688 -96.50244141 343.4296875 C-58.8858171 371.26930373 -9.9989351 380.47960825 35.84790039 374.02661133 C79.23742271 366.81472887 122.43939942 344.53286208 149.03515625 308.68359375 C156.1931604 298.4759322 162.78202289 288.07833875 168.8046875 277.16015625 C164.61900331 277.16015625 162.23317882 279.40252012 158.9296875 281.72265625 C126.50729776 303.81907117 87.40530689 310.96052674 48.80078125 304.19921875 C18.54388086 298.22738399 -7.01316096 283.29955707 -29.1953125 262.16015625 C-30.27425781 261.16048828 -30.27425781 261.16048828 -31.375 260.140625 C-53.36043852 239.17057822 -66.03704036 209.87257316 -71.73876953 180.49853516 C-72.11096891 178.59215778 -72.52074633 176.69314827 -72.94140625 174.796875 C-79.93442375 139.15659963 -69.89936576 97.95462106 -50.01953125 67.8671875 C-34.84387613 45.78000109 -16.11193318 28.47494739 7.8046875 16.16015625 C7.8046875 15.83015625 7.8046875 15.50015625 7.8046875 15.16015625 C-6.40297655 14.61077289 -19.35650088 15.92769163 -33.1953125 19.16015625 Z M124.4921875 87.84765625 C122.53536481 90.03667586 122.53536481 90.03667586 122.8671875 92.78515625 C123.67124296 95.48305386 123.67124296 95.48305386 126.8046875 97.16015625 C130.63217655 96.97783033 130.63217655 96.97783033 133.8046875 95.16015625 C134.13807346 91.70203456 134.13807346 91.70203456 133.8046875 88.16015625 C130.13860782 85.71610313 128.16682188 85.1661663 124.4921875 87.84765625 Z M165.8046875 146.16015625 C164.23533156 149.29886813 164.45267647 151.69871447 164.8046875 155.16015625 C166.72135417 158.24348958 166.72135417 158.24348958 169.8046875 160.16015625 C173.95362475 160.66967486 177.36668358 160.70682582 180.8046875 158.16015625 C183.1067824 154.93722339 183.27979404 152.04019301 182.8046875 148.16015625 C181.00474976 145.46024963 179.7209145 143.61826975 176.8046875 142.16015625 C171.68949745 141.5918018 169.47627167 142.59347449 165.8046875 146.16015625 Z M122.8046875 204.16015625 C121.72826041 206.0486598 121.72826041 206.0486598 121.8046875 208.16015625 C122.74523734 210.52565501 122.74523734 210.52565501 124.8046875 212.16015625 C127.8046875 212.82682292 127.8046875 212.82682292 130.8046875 212.16015625 C132.8832483 210.58319993 132.8832483 210.58319993 133.8046875 208.16015625 C133.81103996 205.52478117 133.81103996 205.52478117 132.8046875 203.16015625 C128.46262638 200.26544884 126.49025646 200.72029189 122.8046875 204.16015625 Z " fill="#2B5F78" transform="translate(214.1953125,18.83984375)"/>
<path d="M0 0 C8.98514802 -0.22317322 17.92304601 0.41304905 26.87191772 1.17126465 C28.27792142 1.28823431 29.68454999 1.39793523 31.09170532 1.50012207 C33.0955263 1.64900802 35.09673612 1.83182027 37.09765625 2.015625 C38.2683667 2.11512451 39.43907715 2.21462402 40.64526367 2.31713867 C44.62776264 3.3797744 46.28246372 4.94190169 48.8046875 8.16015625 C48.8046875 11.53849619 48.65758355 13.89335477 46.7421875 16.73828125 C43.76275788 18.92479815 40.34295457 19.4517178 36.8046875 20.28515625 C20.46355277 24.51265574 6.49197149 32.48379797 -7.1953125 42.16015625 C-9.18709445 43.50637601 -11.18985549 44.83430948 -13.1953125 46.16015625 C-13.1953125 42.99134931 -12.9894883 41.72326453 -11.1953125 39.16015625 C-8.5703125 38.41015625 -8.5703125 38.41015625 -6.1953125 38.16015625 C-6.1953125 37.17015625 -6.1953125 36.18015625 -6.1953125 35.16015625 C-6.1953125 32.82682292 -6.1953125 30.49348958 -6.1953125 28.16015625 C-10.73702246 30.06900317 -10.73702246 30.06900317 -15.1953125 32.16015625 C-13.87070382 29.07539514 -12.66880205 27.47919718 -9.859375 25.65234375 C-9.20710937 25.22308594 -8.55484375 24.79382813 -7.8828125 24.3515625 C-7.2021875 23.91714844 -6.5215625 23.48273437 -5.8203125 23.03515625 C-5.14742187 22.59300781 -4.47453125 22.15085937 -3.78125 21.6953125 C-0.65357804 19.65740026 2.44154556 17.7894528 5.8046875 16.16015625 C-7.69999402 15.56654388 -20.03907344 17.12819998 -33.1953125 20.16015625 C-33.89817383 20.32032227 -34.60103516 20.48048828 -35.32519531 20.64550781 C-64.39309921 27.426579 -90.69927606 41.71264811 -113.1953125 61.16015625 C-114.43667969 62.21783203 -114.43667969 62.21783203 -115.703125 63.296875 C-142.79686895 86.9508176 -161.21942777 119.53949904 -167.7734375 154.88867188 C-168.05270666 156.39232946 -168.34421736 157.89376943 -168.6484375 159.39257812 C-174.45548543 188.25260511 -172.9989856 221.30219406 -163.1953125 249.16015625 C-162.95441895 249.86479004 -162.71352539 250.56942383 -162.46533203 251.29541016 C-155.11967612 272.68462869 -145.64599717 291.65942953 -131.1953125 309.16015625 C-130.78667969 309.65757324 -130.37804687 310.15499023 -129.95703125 310.66748047 C-120.3633021 322.31059052 -110.31320767 332.15508548 -98.1953125 341.16015625 C-97.35516602 341.79074951 -97.35516602 341.79074951 -96.49804688 342.43408203 C-58.88205791 370.27035589 -9.99633195 379.47924185 35.84790039 373.02661133 C78.73572392 365.8981175 121.62373556 344.11847332 148 308.71875 C155.19485705 298.5182492 161.77526167 288.09059581 167.8046875 277.16015625 C167.13824219 277.58425781 166.47179687 278.00835937 165.78515625 278.4453125 C163.84178895 279.68200078 161.89772637 280.91759687 159.953125 282.15234375 C157.93228072 283.44107075 155.91619918 284.73731443 153.90625 286.04296875 C122.44761523 306.39855595 82.85738441 311.92100466 46.31201172 304.70800781 C33.11370661 301.82417172 20.7653706 297.4246609 8.8046875 291.16015625 C8.15113281 290.82693359 7.49757812 290.49371094 6.82421875 290.15039062 C4.84634818 289.13467566 2.88619335 288.09135861 0.9296875 287.03515625 C-0.79894531 286.10316406 -0.79894531 286.10316406 -2.5625 285.15234375 C-5.1953125 283.16015625 -5.1953125 283.16015625 -6.23046875 280.59375 C-6.1953125 278.16015625 -6.1953125 278.16015625 -3.7578125 275.34765625 C-2.489375 274.26484375 -2.489375 274.26484375 -1.1953125 273.16015625 C-2.5153125 272.83015625 -3.8353125 272.50015625 -5.1953125 272.16015625 C-5.1953125 271.50015625 -5.1953125 270.84015625 -5.1953125 270.16015625 C-6.1853125 269.83015625 -7.1753125 269.50015625 -8.1953125 269.16015625 C-6.8753125 268.17015625 -5.5553125 267.18015625 -4.1953125 266.16015625 C-1.60240383 267.42194603 0.87074365 268.77040575 3.31640625 270.296875 C35.38376253 289.98558801 71.96337572 296.92782347 108.89453125 288.4453125 C135.65320228 281.73838622 161.61450328 267.4224074 178.82421875 245.61328125 C183.16024389 240.24242565 183.16024389 240.24242565 186.7421875 239.78515625 C190.14562907 240.2019042 191.47987263 240.66313287 193.8046875 243.16015625 C195.80003321 248.27138665 193.60700275 252.61506208 191.8046875 257.47265625 C191.48290527 258.36057861 191.16112305 259.24850098 190.82958984 260.16333008 C183.57972463 279.87865102 174.62100369 298.44852905 161.8046875 315.16015625 C161.15628906 316.03285156 160.50789063 316.90554688 159.83984375 317.8046875 C129.26634068 357.21726274 83.17429747 382.01384616 34.06665039 388.87792969 C-19.13396362 395.51580446 -71.97269239 381.1122355 -114.23828125 348.3671875 C-154.6910166 316.14280414 -180.18769774 268.4344497 -186.1953125 217.16015625 C-186.30617187 216.27585938 -186.41703125 215.3915625 -186.53125 214.48046875 C-191.55054868 166.59364618 -179.02111959 115.31964473 -149.1953125 77.16015625 C-148.46828125 76.22300781 -147.74125 75.28585938 -146.9921875 74.3203125 C-138.04362107 63.10241538 -128.59249643 52.91633756 -117.1953125 44.16015625 C-116.18855469 43.34933594 -115.18179688 42.53851563 -114.14453125 41.703125 C-81.72780008 15.75874456 -41.2057264 2.0653237 0 0 Z " fill="#2F6279" transform="translate(214.1953125,18.83984375)"/>
<path d="M0 0 C0.99 0 1.98 0 3 0 C2.59179373 1.3359478 2.17280893 2.66860168 1.75 4 C1.51796875 4.7425 1.2859375 5.485 1.046875 6.25 C0.16983248 8.55387288 -0.80259175 10.63373727 -1.92578125 12.8203125 C-7.59971298 23.99078408 -10.44713708 36.13951928 -12.8125 48.375 C-13.01931396 49.44347168 -13.22612793 50.51194336 -13.43920898 51.61279297 C-18.73234786 80.44113787 -17.07739437 111.17526779 -6.25 138.625 C-5.1008077 141.72781922 -4.69444054 143.74069908 -5 147 C-4.34 147 -3.68 147 -3 147 C-2.8040625 147.53625 -2.608125 148.0725 -2.40625 148.625 C11.2750703 184.47949458 37.25692884 213.85477454 69 235 C69.69738281 235.46792969 70.39476562 235.93585938 71.11328125 236.41796875 C90.3123705 248.59216922 112.60181179 257.18639961 135 261 C136.03382813 261.20367187 137.06765625 261.40734375 138.1328125 261.6171875 C174.96919064 267.85629563 219.86733283 261.86774976 251.828125 241.3828125 C253.92273969 240.04919092 256.04969412 238.89833482 258.25 237.75 C262.43905574 235.45012626 266.30295821 232.77234472 270.1875 230 C271.06100098 229.37689941 271.06100098 229.37689941 271.95214844 228.74121094 C279.90565685 222.98770542 286.79624126 216.62176074 293 209 C293.99 209.33 294.98 209.66 296 210 C267.06504816 248.16775699 225.41479144 270.57513368 178.4609375 278.10546875 C170.21803056 279.23384941 162.05577473 279.39885574 153.75 279.375 C152.96653198 279.3737915 152.18306396 279.37258301 151.37585449 279.37133789 C108.61501169 279.19359221 68.4598495 265.12189726 36 237 C35.17113281 236.29359375 34.34226563 235.5871875 33.48828125 234.859375 C1.72777247 207.13748664 -18.65461618 168.57776824 -25 127 C-25.17515137 125.87505127 -25.35030273 124.75010254 -25.53076172 123.59106445 C-26.81675782 114.75944894 -27.38763531 106.10917755 -27.375 97.1875 C-27.37445618 96.52590881 -27.37391235 95.86431763 -27.37335205 95.18267822 C-27.24392558 60.48292326 -17.45823785 29.6628393 0 0 Z " fill="#A8B9C3" transform="translate(69,115)"/>
<path d="M0 0 C5.89802881 5.36073426 8.47683349 11.02171075 9 19 C8.2103042 26.89695798 6.00603176 32.12756965 0.1875 37.6875 C-6.72122361 42.69971125 -12.63298219 43.88010418 -21 43 C-26.68992683 41.73883065 -30.90274991 39.19036941 -35 35 C-35.77159094 33.63390187 -36.49520249 32.23973667 -37.171875 30.82421875 C-37.51831055 30.10709717 -37.86474609 29.38997559 -38.22167969 28.65112305 C-38.47852539 28.10625244 -38.73537109 27.56138184 -39 27 C-47.99706454 26.62664137 -56.99140547 26.34372681 -65.99456882 26.17100525 C-70.17717003 26.08802998 -74.35441749 25.97588704 -78.53393555 25.79296875 C-98.01775482 24.10651833 -98.01775482 24.10651833 -115.55419922 30.5625 C-118.89478873 33.80557926 -121.60752369 37.31368449 -123.97422791 41.32006836 C-125 43 -125 43 -127 45 C-133.62395572 46.34333479 -140.60742023 46.14450128 -147.33984375 46.12939453 C-148.81023605 46.13202301 -148.81023605 46.13202301 -150.31033325 46.13470459 C-153.51940736 46.13907093 -156.72842542 46.1362036 -159.9375 46.1328125 C-162.18611664 46.13348704 -164.43473321 46.13445831 -166.68334961 46.13571167 C-171.3836334 46.13718158 -176.08389812 46.13505685 -180.78417969 46.13037109 C-186.78925597 46.12467426 -192.79428754 46.12795705 -198.79936218 46.13394356 C-203.43892754 46.13756826 -208.07848241 46.13640181 -212.7180481 46.13381577 C-214.93148809 46.13315178 -217.14492906 46.13395633 -219.35836792 46.13629532 C-222.45898945 46.13885328 -225.55953997 46.1349372 -228.66015625 46.12939453 C-230.01332443 46.13243088 -230.01332443 46.13243088 -231.39382935 46.13552856 C-247.91881014 46.08118986 -247.91881014 46.08118986 -250 44 C-250.23701239 41.14122091 -250.42219182 38.30116703 -250.5625 35.4375 C-250.62727539 34.22803711 -250.62727539 34.22803711 -250.69335938 32.99414062 C-250.79975262 30.99631195 -250.90040888 28.9981793 -251 27 C-250.59994877 27.64924627 -250.19989754 28.29849255 -249.78772354 28.96741295 C-248.19924552 31.16658308 -248.19924552 31.16658308 -245.88564682 31.50895119 C-245.06420307 31.51305693 -244.24275932 31.51716267 -243.39642334 31.52139282 C-241.97921242 31.54264725 -241.97921242 31.54264725 -240.53337097 31.56433105 C-238.9810955 31.5568988 -238.9810955 31.5568988 -237.39746094 31.54931641 C-236.30611343 31.55953827 -235.21476593 31.56976013 -234.09034729 31.58029175 C-230.47146853 31.6081609 -226.85334853 31.60616395 -223.234375 31.6015625 C-220.72194128 31.60933379 -218.20951018 31.61800258 -215.69708252 31.62753296 C-210.42445402 31.64247505 -205.15202249 31.64213932 -199.87939453 31.63134766 C-193.79486271 31.61928496 -187.71125786 31.64384261 -181.62688422 31.68648779 C-175.76580397 31.7260501 -169.90508519 31.73205706 -164.04389191 31.72501755 C-161.5544238 31.72604399 -159.0649409 31.73652004 -156.57555389 31.75664139 C-153.08968623 31.78135183 -149.60595142 31.767801 -146.12011719 31.74462891 C-144.57998711 31.76756012 -144.57998711 31.76756012 -143.00874329 31.79095459 C-136.96930783 31.70233816 -133.66107681 30.81410583 -129.33600235 26.4972744 C-128.89512157 26.00317385 -128.4542408 25.5090733 -128 25 C-127.00806641 23.93072266 -127.00806641 23.93072266 -125.99609375 22.83984375 C-125.48175781 22.21207031 -124.96742188 21.58429688 -124.4375 20.9375 C-116.76727777 11.96024439 -116.76727777 11.96024439 -111 11 C-108.61623754 10.91186203 -106.23011434 10.88236187 -103.84472656 10.88647461 C-103.13213181 10.88632858 -102.41953705 10.88618256 -101.68534851 10.8860321 C-99.33707605 10.88672709 -96.98888355 10.89450006 -94.640625 10.90234375 C-93.00966434 10.9042094 -91.37870312 10.90563261 -89.7477417 10.90663147 C-85.46025031 10.91044506 -81.17279292 10.92026546 -76.88531494 10.93133545 C-72.50818339 10.94157447 -68.13104633 10.94613443 -63.75390625 10.95117188 C-55.16925525 10.96188877 -46.58463186 10.97895128 -38 11 C-37.7102832 10.05672852 -37.42056641 9.11345703 -37.12207031 8.14160156 C-35.00797508 2.2225029 -29.58331127 -1.65218542 -24.125 -4.5 C-14.92828879 -5.97147379 -7.80392735 -5.45318216 0 0 Z M-24 14 C-25.56935594 17.13871188 -25.35201103 19.53855822 -25 23 C-23.08333333 26.08333333 -23.08333333 26.08333333 -20 28 C-15.85106275 28.50951861 -12.43800392 28.54666957 -9 26 C-6.6979051 22.77706714 -6.52489346 19.88003676 -7 16 C-8.79993774 13.30009338 -10.083773 11.4581135 -13 10 C-18.11519005 9.43164555 -20.32841583 10.43331824 -24 14 Z " fill="#3288B2" transform="translate(404,151)"/>
<path d="M0 0 C5.07676232 5.4883917 6.53874733 9.78320591 6.37109375 17.1796875 C5.66268465 22.56359669 3.18840185 25.97003448 -0.7265625 29.6015625 C-5.36999608 33.02203415 -9.61398388 33.70660067 -15.31640625 33.421875 C-20.88347744 32.54670224 -24.63788763 30.43021799 -28.5 26.375 C-30 24 -30 24 -30 22 C-45.2548965 20.93028897 -45.2548965 20.93028897 -59.44921875 25.01171875 C-61.62134118 27.55821057 -63.29693593 30.12399229 -65 33 C-66.33208219 34.41661817 -67.70704322 35.7943428 -69.125 37.125 C-71.6627273 39.62276309 -74.05959855 42.17009176 -76.375 44.875 C-79.91722946 49.00084621 -83.76018402 52.77997605 -87.6328125 56.59375 C-89.68541587 58.68022472 -91.57813851 60.80536466 -93.4375 63.0625 C-96.02496103 66.02861387 -97.12202822 66.86936096 -100.99335003 67.1386652 C-101.75751641 67.14511775 -102.5216828 67.1515703 -103.30900574 67.15821838 C-104.18820175 67.1680072 -105.06739777 67.17779602 -105.97323608 67.18788147 C-106.93492706 67.19363693 -107.89661804 67.1993924 -108.88745117 67.20532227 C-109.90226059 67.21522186 -110.91707001 67.22512146 -111.96263123 67.23532104 C-115.32271986 67.26695209 -118.68282264 67.29169991 -122.04296875 67.31640625 C-124.37039053 67.33697438 -126.69780857 67.35797082 -129.02522278 67.37937927 C-135.15559863 67.43461442 -141.28600828 67.48401738 -147.41644287 67.53222656 C-153.67023735 67.58243101 -159.92398267 67.6381226 -166.17773438 67.69335938 C-178.45178093 67.80095862 -190.72587015 67.90239971 -203 68 C-203.05384521 65.70858714 -203.09272087 63.41681812 -203.125 61.125 C-203.14820313 59.84882813 -203.17140625 58.57265625 -203.1953125 57.2578125 C-203 54 -203 54 -201 52 C-197.89407247 51.84117756 -194.88104348 51.80826974 -191.77685547 51.86474609 C-190.34264252 51.87893837 -190.34264252 51.87893837 -188.87945557 51.89341736 C-185.70850875 51.92718529 -182.53794572 51.97527591 -179.3671875 52.0234375 C-177.17287204 52.04959531 -174.9785458 52.07486306 -172.78421021 52.09927368 C-167.00053299 52.16601586 -161.21708158 52.24488892 -155.43359375 52.32623291 C-149.53524462 52.40706409 -143.63676276 52.47649948 -137.73828125 52.546875 C-126.15869504 52.68672188 -114.57931533 52.8393761 -103 53 C-102.72309326 52.39639648 -102.44618652 51.79279297 -102.16088867 51.17089844 C-100.45850874 47.98739427 -97.8888147 45.72576026 -95.3125 43.25 C-91.89660896 39.90688427 -88.53346747 36.5847007 -85.4375 32.9375 C-82.18349575 29.1106637 -78.64085226 25.60202005 -75.05981445 22.0859375 C-72.25618353 19.31576973 -69.6435519 16.46746091 -67.125 13.4375 C-64.65531047 10.52255394 -62.73883731 9.09965803 -59 8 C-58.67 7.34 -58.34 6.68 -58 6 C-44.14 6.495 -44.14 6.495 -30 7 C-29.34 5.35 -28.68 3.7 -28 2 C-26.1953125 0.234375 -26.1953125 0.234375 -24.125 -1.25 C-23.10792969 -2.00023438 -23.10792969 -2.00023438 -22.0703125 -2.765625 C-14.74054388 -7.13582667 -6.52327107 -4.60466194 0 0 Z M-17.3125 10.6875 C-19.26932269 12.87651961 -19.26932269 12.87651961 -18.9375 15.625 C-18.13344454 18.32289761 -18.13344454 18.32289761 -15 20 C-11.17251095 19.81767408 -11.17251095 19.81767408 -8 18 C-7.66661404 14.54187831 -7.66661404 14.54187831 -8 11 C-11.66607968 8.55594688 -13.63786562 8.00601005 -17.3125 10.6875 Z " fill="#3689B2" transform="translate(356,96)"/>
<path d="M0 0 C5.00652764 2.88254622 7.82378764 6.29423842 10.0625 11.6875 C10.97992652 17.10031646 11.15784506 21.69953036 8.453125 26.62109375 C5.08492275 31.35220258 2.07948929 34.69553211 -3.7890625 35.87109375 C-9.82711429 36.6778307 -15.07458914 36.77163652 -20.3125 33.375 C-23.14982641 30.69254948 -25.56207534 27.87584933 -27.3125 24.375 C-60.65147749 24.29227103 -93.98404244 24.51678899 -127.3213501 24.83856201 C-133.77997421 24.90043397 -140.23862087 24.9598598 -146.69726562 25.01953125 C-159.23569942 25.13571451 -171.77410732 25.25446602 -184.3125 25.375 C-185.15276396 23.60744474 -185.98448722 21.83582737 -186.8125 20.0625 C-187.2765625 19.07636719 -187.740625 18.09023437 -188.21875 17.07421875 C-189.3125 14.375 -189.3125 14.375 -189.3125 11.375 C-190.3025 11.375 -191.2925 11.375 -192.3125 11.375 C-192.6425 8.075 -192.9725 4.775 -193.3125 1.375 C-191.3125 4.375 -191.3125 4.375 -190.3125 9.375 C-136.1925 9.375 -82.0725 9.375 -26.3125 9.375 C-25.6525 8.055 -24.9925 6.735 -24.3125 5.375 C-22.69140625 3.70703125 -22.69140625 3.70703125 -20.875 2.1875 C-19.97974609 1.42373047 -19.97974609 1.42373047 -19.06640625 0.64453125 C-13.73261337 -3.21623197 -5.76029288 -2.63922164 0 0 Z M-14.3125 14.375 C-15.38892709 16.26350355 -15.38892709 16.26350355 -15.3125 18.375 C-14.37195016 20.74049876 -14.37195016 20.74049876 -12.3125 22.375 C-9.3125 23.04166667 -9.3125 23.04166667 -6.3125 22.375 C-4.2339392 20.79804368 -4.2339392 20.79804368 -3.3125 18.375 C-3.30614754 15.73962492 -3.30614754 15.73962492 -4.3125 13.375 C-8.65456112 10.48029259 -10.62693104 10.93513564 -14.3125 14.375 Z " fill="#2F84AE" transform="translate(351.3125,208.625)"/>
<path d="M0 0 C5.32971399 3.65081448 9.36619504 9.43085417 10.62890625 15.80078125 C11.44122062 25.12242158 10.39685397 31.30017703 4.37890625 38.48828125 C-2.59180325 44.35001424 -8.47022168 47.26240787 -17.64453125 47.140625 C-24.04985125 46.34225417 -29.48355073 43.15663077 -33.80859375 38.42578125 C-39.72358299 30.56705617 -40.35183329 23.5405394 -39.37109375 13.80078125 C-37.65003685 7.04644475 -32.89671347 2.75662264 -27.37109375 -1.19921875 C-17.86056237 -6.76198239 -9.32113994 -4.8033038 0 0 Z " fill="#9AAAB4" transform="translate(103.37109375,180.19921875)"/>
<path d="M0 0 C13.84740537 -0.07014475 27.6947831 -0.12281532 41.54232979 -0.15543652 C47.97229296 -0.17109297 54.40213677 -0.19233123 60.83203125 -0.22631836 C67.03712004 -0.25891199 73.24209402 -0.27685317 79.44726181 -0.28463173 C81.8147449 -0.29017519 84.1822217 -0.30100012 86.54965591 -0.31719017 C89.86543615 -0.338964 93.18074182 -0.34196688 96.49658203 -0.34057617 C97.96501808 -0.35675491 97.96501808 -0.35675491 99.46311951 -0.3732605 C105.47755633 -0.34596078 110.10586473 0.2352496 114.66015625 4.5859375 C115.12292969 5.17632812 115.58570313 5.76671875 116.0625 6.375 C118.3422581 9.16538265 120.70624533 11.711687 123.3359375 14.16796875 C123.92753662 14.72758301 124.51913574 15.28719727 125.12866211 15.86376953 C126.31662468 16.97941855 127.5177345 18.08126263 128.73266602 19.16748047 C131.84041413 22.12027287 132.91100675 23.34851506 133.51171875 27.74609375 C133 31 133 31 130.875 33.5 C128 35 128 35 125.1875 35.1875 C119.56455548 33.09267753 115.49587289 28.97765761 111.90402222 24.22895813 C108.03827571 19.47403575 104.79194877 15.98086982 98.53546143 15.0352478 C93.08735333 14.59205866 87.65283476 14.76434662 82.1953125 14.91796875 C80.18279932 14.9313038 78.17024058 14.93888255 76.15768433 14.94099426 C70.88786595 14.95791073 65.62090448 15.03518648 60.35198975 15.13085938 C51.89990708 15.27921164 43.44787429 15.35780209 34.99462509 15.39312172 C32.04816484 15.41763306 29.10445449 15.48198985 26.15872192 15.5500946 C24.35468869 15.56763011 22.55064152 15.58380202 20.74658203 15.59838867 C19.52309303 15.64264229 19.52309303 15.64264229 18.27488708 15.68778992 C12.8620549 15.68231473 12.8620549 15.68231473 10.34988022 13.69393349 C7 9.84082777 7 9.84082777 7 7 C6.01 6.67 5.02 6.34 4 6 C3.3125 3.9375 3.3125 3.9375 3 2 C2.01 2 1.02 2 0 2 C0 1.34 0 0.68 0 0 Z " fill="#2C85B0" transform="translate(180,255)"/>
<path d="M0 0 C4.20828188 2.78862052 7.82220078 5.92572094 9.5625 10.8203125 C11.02843391 18.12380468 11.17534075 25.83276542 7.26171875 32.35546875 C3.48890923 37.27296971 -1.14264554 40.17557812 -7 42 C-13.31962031 42.67249604 -18.58781641 42.65007731 -24 39 C-25.010625 38.319375 -26.02125 37.63875 -27.0625 36.9375 C-31.64086975 32.90273616 -34.41233142 27.38803713 -35.44921875 21.41015625 C-35.71302966 15.50625008 -34.54048569 10.76338326 -31 6 C-22.33419868 -3.17236173 -11.57902479 -6.39008422 0 0 Z " fill="#9AA9B3" transform="translate(144,275)"/>
<path d="M0 0 C5.00652764 2.88254622 7.82378764 6.29423842 10.0625 11.6875 C10.97992652 17.10031646 11.15784506 21.69953036 8.453125 26.62109375 C5.08492275 31.35220258 2.07948929 34.69553211 -3.7890625 35.87109375 C-9.82711429 36.6778307 -15.07458914 36.77163652 -20.3125 33.375 C-23.14982641 30.69254948 -25.56207534 27.87584933 -27.3125 24.375 C-41.1725 23.88 -41.1725 23.88 -55.3125 23.375 C-55.3125 23.045 -55.3125 22.715 -55.3125 22.375 C-46.4025 22.045 -37.4925 21.715 -28.3125 21.375 C-27.9825 19.065 -27.6525 16.755 -27.3125 14.375 C-28.3025 13.385 -28.3025 13.385 -29.3125 12.375 C-28.3225 12.045 -27.3325 11.715 -26.3125 11.375 C-80.4325 11.045 -134.5525 10.715 -190.3125 10.375 C-190.3125 10.045 -190.3125 9.715 -190.3125 9.375 C-136.1925 9.375 -82.0725 9.375 -26.3125 9.375 C-25.6525 8.055 -24.9925 6.735 -24.3125 5.375 C-22.69140625 3.70703125 -22.69140625 3.70703125 -20.875 2.1875 C-19.97974609 1.42373047 -19.97974609 1.42373047 -19.06640625 0.64453125 C-13.73261337 -3.21623197 -5.76029288 -2.63922164 0 0 Z M-14.3125 14.375 C-15.38892709 16.26350355 -15.38892709 16.26350355 -15.3125 18.375 C-14.37195016 20.74049876 -14.37195016 20.74049876 -12.3125 22.375 C-9.3125 23.04166667 -9.3125 23.04166667 -6.3125 22.375 C-4.2339392 20.79804368 -4.2339392 20.79804368 -3.3125 18.375 C-3.30614754 15.73962492 -3.30614754 15.73962492 -4.3125 13.375 C-8.65456112 10.48029259 -10.62693104 10.93513564 -14.3125 14.375 Z " fill="#5AA3C7" transform="translate(351.3125,208.625)"/>
<path d="M0 0 C3.9269987 2.05938148 6.39988812 4.13481413 7.96484375 8.27734375 C8.80610726 13.21149602 8.39919005 17.18170315 5.96484375 21.58984375 C2.52782877 26.42676652 -1.54384972 28.59230254 -7.3046875 29.72265625 C-11.76916474 30.07251307 -14.45847558 29.41139545 -17.97265625 26.58984375 C-21.21527734 23.35474614 -22.86789595 20.91296053 -23.1640625 16.24609375 C-22.99207654 10.33787025 -20.88801989 7.16490883 -16.921875 2.90625 C-12.00076603 -1.3424093 -6.14673647 -2.18262236 0 0 Z " fill="#9DADB7" transform="translate(111.03515625,111.72265625)"/>
<path d="M0 0 C11.46737244 -1.03206352 11.46737244 -1.03206352 16.5625 2.625 C21.66100708 7.16288286 23.51490133 12.06487329 24.06640625 18.76171875 C23.89814635 24.43306728 20.7816037 28.99594902 17 33 C12.43022826 36.87738208 6.79251702 37.13734001 1 37 C-2.16556911 36.39104314 -4.10076454 35.55699682 -7 34 C-7.7109375 31.88671875 -7.7109375 31.88671875 -8 30 C-7.34 30 -6.68 30 -6 30 C-5.34 28.02 -4.68 26.04 -4 24 C-2.35 24.33 -0.7 24.66 1 25 C1 24.67 1 24.34 1 24 C2.98 24 4.96 24 7 24 C7.99 20.7 8.98 17.4 10 14 C9.01 13.01 8.02 12.02 7 11 C7.42105263 6.57894737 7.42105263 6.57894737 9 5 C8.34 4.34 7.68 3.68 7 3 C7.33 2.34 7.66 1.68 8 1 C5.36 1 2.72 1 0 1 C0 0.67 0 0.34 0 0 Z " fill="#3388B2" transform="translate(338,208)"/>
<path d="M0 0 C3.57740144 1.93193001 6.26920525 4.10520742 7.7578125 7.96484375 C8.61826535 12.73394942 7.78267451 15.96063377 5 20 C-1.07811209 25.98112094 -1.07811209 25.98112094 -4.98828125 26.01953125 C-10.15854179 25.55898703 -13.24217804 24.87169535 -17 21 C-19.84269652 16.73595522 -19.62359076 13.00431583 -19 8 C-17.22128603 4.23733583 -15.66862969 2.48203536 -12.3125 0.0625 C-7.86889406 -1.36280757 -4.46351676 -1.37696011 0 0 Z " fill="#AAB9C2" transform="translate(201,336)"/>
<path d="M0 0 C13.58664255 -0.069511 27.17324278 -0.12281703 40.76002693 -0.15543652 C47.06892299 -0.17109224 53.37769739 -0.19232915 59.68652344 -0.22631836 C65.77490307 -0.25891462 71.86316567 -0.27685372 77.95162582 -0.28463173 C80.27445188 -0.29017471 82.59727153 -0.30099874 84.92004776 -0.31719017 C88.17356457 -0.33896753 91.42659781 -0.34196673 94.68017578 -0.34057617 C96.12055962 -0.35675491 96.12055962 -0.35675491 97.59004211 -0.3732605 C103.55494592 -0.34567467 108.14595996 0.27355234 112.66015625 4.5859375 C113.12292969 5.17632812 113.58570313 5.76671875 114.0625 6.375 C116.3422581 9.16538265 118.70624533 11.711687 121.3359375 14.16796875 C121.92753662 14.72758301 122.51913574 15.28719727 123.12866211 15.86376953 C124.31662468 16.97941855 125.5177345 18.08126263 126.73266602 19.16748047 C129.84041413 22.12027287 130.91100675 23.34851506 131.51171875 27.74609375 C131 31 131 31 128.875 33.5 C126 35 126 35 123.1875 35.1875 C115.06558903 32.16169003 108.94396109 24.06779361 103 18 C103.495 16.515 103.495 16.515 104 15 C104.99 14.67 105.98 14.34 107 14 C107.33 13.01 107.66 12.02 108 11 C107.01 11 106.02 11 105 11 C105.33 9.68 105.66 8.36 106 7 C106.99 7 107.98 7 109 7 C109 6.34 109 5.68 109 5 C108.01 4.505 108.01 4.505 107 4 C107 3.34 107 2.68 107 2 C71.69 1.67 36.38 1.34 0 1 C0 0.67 0 0.34 0 0 Z " fill="#348AB4" transform="translate(182,255)"/>
<path d="M0 0 C1.19882812 0.15275391 1.19882812 0.15275391 2.421875 0.30859375 C3.02515625 0.39238281 3.6284375 0.47617188 4.25 0.5625 C3.775625 1.0575 3.30125 1.5525 2.8125 2.0625 C0.62832093 5.55718651 0.59086089 8.47216936 0.25 12.5625 C-1.07 12.5625 -2.39 12.5625 -3.75 12.5625 C-3.75 13.2225 -3.75 13.8825 -3.75 14.5625 C-4.265625 14.995625 -4.78125 15.42875 -5.3125 15.875 C-7.0546513 17.52000713 -7.0546513 17.52000713 -6.5625 20.125 C-5.90372967 22.70691272 -5.90372967 22.70691272 -3.75 24.5625 C-4.41 24.5625 -5.07 24.5625 -5.75 24.5625 C-6.245 27.0375 -6.245 27.0375 -6.75 29.5625 C-7.74 29.5625 -8.73 29.5625 -9.75 29.5625 C-9.40213292 31.53786745 -9.40213292 31.53786745 -8.75 33.5625 C-7.76 34.0575 -7.76 34.0575 -6.75 34.5625 C-6.75 35.2225 -6.75 35.8825 -6.75 36.5625 C-11.15875955 36.05864177 -13.57550966 34.6511933 -16.75 31.5625 C-18.0625 28.8125 -18.0625 28.8125 -18.75 26.5625 C-18.42 26.2325 -18.09 25.9025 -17.75 25.5625 C-19.4 25.2325 -21.05 24.9025 -22.75 24.5625 C-22.75 23.5725 -22.75 22.5825 -22.75 21.5625 C-21.1 20.9025 -19.45 20.2425 -17.75 19.5625 C-18.08 18.2425 -18.41 16.9225 -18.75 15.5625 C-25.33413523 13.91479169 -31.53938374 13.176025 -38.3125 12.9375 C-39.68245117 12.87949219 -39.68245117 12.87949219 -41.08007812 12.8203125 C-43.30319924 12.72719748 -45.52633613 12.64137834 -47.75 12.5625 C-47.42 11.9025 -47.09 11.2425 -46.75 10.5625 C-32.89 11.0575 -32.89 11.0575 -18.75 11.5625 C-18.09 9.9125 -17.43 8.2625 -16.75 6.5625 C-14.9453125 4.796875 -14.9453125 4.796875 -12.875 3.3125 C-12.19695312 2.81234375 -11.51890625 2.3121875 -10.8203125 1.796875 C-7.08641427 -0.42937376 -4.25937469 -0.56374077 0 0 Z " fill="#3D8FB7" transform="translate(344.75,91.4375)"/>
<path d="M0 0 C0.94294922 0.0103125 1.88589844 0.020625 2.85742188 0.03125 C9.18686252 0.17045419 15.15434564 1.05517317 21.3125 2.5 C20.9825 3.82 20.6525 5.14 20.3125 6.5 C20.9725 6.83 21.6325 7.16 22.3125 7.5 C20.6625 8.82 19.0125 10.14 17.3125 11.5 C19.7875 12.49 19.7875 12.49 22.3125 13.5 C21.9825 14.16 21.6525 14.82 21.3125 15.5 C20.8175 15.005 20.8175 15.005 20.3125 14.5 C18.2416528 14.3415735 16.16571971 14.24875578 14.08984375 14.18359375 C12.19975586 14.12075195 12.19975586 14.12075195 10.27148438 14.05664062 C8.93099264 14.01682404 7.5904978 13.97711186 6.25 13.9375 C4.90558477 13.89431958 3.5611834 13.85070544 2.21679688 13.80664062 C-1.0845234 13.70014642 -4.38592236 13.5981354 -7.6875 13.5 C-8.0175 11.19 -8.3475 8.88 -8.6875 6.5 C-10.6675 7.49 -10.6675 7.49 -12.6875 8.5 C-13.6775 7.84 -14.6675 7.18 -15.6875 6.5 C-11.46393033 -0.34416408 -7.69926638 -0.33004223 0 0 Z " fill="#2783B0" transform="translate(305.6875,103.5)"/>
<path d="M0 0 C13.58664255 -0.069511 27.17324278 -0.12281703 40.76002693 -0.15543652 C47.06892299 -0.17109224 53.37769739 -0.19232915 59.68652344 -0.22631836 C65.77490307 -0.25891462 71.86316567 -0.27685372 77.95162582 -0.28463173 C80.27445188 -0.29017471 82.59727153 -0.30099874 84.92004776 -0.31719017 C88.17356457 -0.33896753 91.42659781 -0.34196673 94.68017578 -0.34057617 C96.12055962 -0.35675491 96.12055962 -0.35675491 97.59004211 -0.3732605 C103.69379937 -0.34503252 108.24108197 0.3526127 112.8359375 4.76171875 C113.34382813 5.39722656 113.85171875 6.03273438 114.375 6.6875 C118.00157837 11.06048824 121.93804934 15.03300403 126 19 C124.68 19.33 123.36 19.66 122 20 C122 19.34 122 18.68 122 18 C116.92722201 16.9854444 113.80364152 17.10088591 109 19 C108.34 19 107.68 19 107 19 C106.67 19.66 106.34 20.32 106 21 C105.01 19.68 104.02 18.36 103 17 C104 15 104 15 107 14 C107.33 13.01 107.66 12.02 108 11 C107.01 11 106.02 11 105 11 C105.33 9.68 105.66 8.36 106 7 C106.99 7 107.98 7 109 7 C109 6.34 109 5.68 109 5 C108.01 4.505 108.01 4.505 107 4 C107 3.34 107 2.68 107 2 C71.69 1.67 36.38 1.34 0 1 C0 0.67 0 0.34 0 0 Z " fill="#71ADCB" transform="translate(182,255)"/>
<path d="M0 0 C11.47857993 -1.03307219 11.47857993 -1.03307219 16.625 2.8125 C19.66944877 5.41376952 21.88109963 7.58528718 22.23046875 11.7421875 C22.20919922 13.29292969 22.20919922 13.29292969 22.1875 14.875 C22.18105469 15.90367187 22.17460937 16.93234375 22.16796875 17.9921875 C22.01326897 20.76239292 21.62248889 23.30088817 21 26 C20.01 26.33 19.02 26.66 18 27 C17.34 26.67 16.68 26.34 16 26 C16 23.03 16 20.06 16 17 C15.34 17.66 14.68 18.32 14 19 C13.01 19 12.02 19 11 19 C10.71125 17.865625 10.4225 16.73125 10.125 15.5625 C9.75375 14.386875 9.3825 13.21125 9 12 C8.34 11.67 7.68 11.34 7 11 C7.875 6.125 7.875 6.125 9 5 C8.34 4.34 7.68 3.68 7 3 C7.33 2.34 7.66 1.68 8 1 C5.36 1 2.72 1 0 1 C0 0.67 0 0.34 0 0 Z " fill="#2984B1" transform="translate(338,208)"/>
<path d="M0 0 C0.99 0 1.98 0 3 0 C2.59179373 1.3359478 2.17280893 2.66860168 1.75 4 C1.51796875 4.7425 1.2859375 5.485 1.046875 6.25 C0.17344385 8.5443863 -0.79433801 10.60324019 -1.91796875 12.77734375 C-4.02984035 16.92819677 -5.61001248 21.14277407 -7.0625 25.5625 C-7.31854004 26.33319824 -7.57458008 27.10389648 -7.83837891 27.89794922 C-10.18106734 35.16460787 -11.73466388 42.47457994 -13 50 C-13.66 48.68 -14.32 47.36 -15 46 C-16.32 46 -17.64 46 -19 46 C-18.52624918 39.28741802 -17.15413027 34.0075911 -14.4375 27.875 C-14.0854248 27.05966797 -13.73334961 26.24433594 -13.37060547 25.40429688 C-9.53156787 16.66729424 -5.3011517 7.95172756 0 0 Z " fill="#AEBDC6" transform="translate(69,115)"/>
<path d="M0 0 C10.64303545 -0.91662506 10.64303545 -0.91662506 13.76953125 1.1953125 C15 2.75 15 2.75 17 6 C17.78375 6.680625 18.5675 7.36125 19.375 8.0625 C21 10 21 10 20.875 12.5 C20.441875 13.7375 20.441875 13.7375 20 15 C19.773125 15.721875 19.54625 16.44375 19.3125 17.1875 C17.38431449 19.85023237 15.09667368 20.19217208 12 21 C11.62875 19.88625 11.2575 18.7725 10.875 17.625 C9.5205979 14.38621238 9.23787197 14.10727559 5.8125 12.5625 C4.4203125 12.2840625 4.4203125 12.2840625 3 12 C4.32 11.67 5.64 11.34 7 11 C6.67 10.01 6.34 9.02 6 8 C6.9375 5.3125 6.9375 5.3125 8 3 C5.3260876 2.10869587 2.76276177 1.52268466 0 1 C0 0.67 0 0.34 0 0 Z " fill="#2F87B6" transform="translate(338,93)"/>
<path d="M0 0 C0.33 1.65 0.66 3.3 1 5 C0.01 5 -0.98 5 -2 5 C-2.33 6.98 -2.66 8.96 -3 11 C-3.99 10.67 -4.98 10.34 -6 10 C-6.33 10.66 -6.66 11.32 -7 12 C-9.0625 12.625 -9.0625 12.625 -11 13 C-11 14.98 -11 16.96 -11 19 C-11.66 19 -12.32 19 -13 19 C-13.33 18.34 -13.66 17.68 -14 17 C-14.66 16.67 -15.32 16.34 -16 16 C-16 15.01 -16 14.02 -16 13 C-15.34 13 -14.68 13 -14 13 C-14.061875 11.783125 -14.12375 10.56625 -14.1875 9.3125 C-14.17364111 5.39736239 -13.6109657 3.06113221 -11 0 C-6.83411878 -2.58960184 -4.39493345 -1.83973958 0 0 Z " fill="#2785B2" transform="translate(291,120)"/>
<path d="M0 0 C0 2.83967231 -0.40267181 5.23735711 -1 8 C-2.9375 8.5625 -2.9375 8.5625 -5 9 C-5.495 8.505 -5.495 8.505 -6 8 C-7.49283798 7.90428029 -8.99019655 7.87811773 -10.48609924 7.87974548 C-11.45510162 7.87837082 -12.424104 7.87699615 -13.42247009 7.87557983 C-14.49420975 7.87917511 -15.5659494 7.88277039 -16.67016602 7.88647461 C-17.79197266 7.88632858 -18.9137793 7.88618256 -20.06958008 7.8860321 C-23.79770811 7.8867318 -27.52578689 7.89452685 -31.25390625 7.90234375 C-33.83080518 7.90420773 -36.40770447 7.90563173 -38.98460388 7.90663147 C-45.08675115 7.91006658 -51.18887794 7.9179574 -57.29101747 7.92798096 C-64.2364925 7.93914311 -71.18196835 7.9446528 -78.12745011 7.94967639 C-92.41830966 7.96014004 -106.7091542 7.97773885 -121 8 C-121 10.31 -121 12.62 -121 15 C-121.33 15 -121.66 15 -122 15 C-122.33 10.71 -122.66 6.42 -123 2 C-122.01 3.32 -121.02 4.64 -120 6 C-117.84474536 6.60423206 -117.84474536 6.60423206 -115.39642334 6.52139282 C-113.97921242 6.54264725 -113.97921242 6.54264725 -112.53337097 6.56433105 C-110.9810955 6.5568988 -110.9810955 6.5568988 -109.39746094 6.54931641 C-108.30611343 6.55953827 -107.21476593 6.56976013 -106.09034729 6.58029175 C-102.47146853 6.6081609 -98.85334853 6.60616395 -95.234375 6.6015625 C-92.72194128 6.60933379 -90.20951018 6.61800258 -87.69708252 6.62753296 C-82.42445402 6.64247505 -77.15202249 6.64213932 -71.87939453 6.63134766 C-65.79486271 6.61928496 -59.71125786 6.64384261 -53.62688422 6.68648779 C-47.76580397 6.7260501 -41.90508519 6.73205706 -36.04389191 6.72501755 C-33.5544238 6.72604399 -31.0649409 6.73652004 -28.57555389 6.75664139 C-25.08968623 6.78135183 -21.60595142 6.767801 -18.12011719 6.74462891 C-16.57998711 6.76756012 -16.57998711 6.76756012 -15.00874329 6.79095459 C-8.82828938 6.700269 -5.5542797 5.70680184 -1.14030838 1.28632164 C-0.57585573 0.64959243 -0.57585573 0.64959243 0 0 Z " fill="#6AA0B9" transform="translate(276,176)"/>
<path d="M0 0 C5.47702236 1.56486353 8.2176653 5.08905889 11.12890625 9.84375 C12.21902772 12.54216727 12.26565336 14.72130115 12.25 17.625 C12.25515625 18.58664063 12.2603125 19.54828125 12.265625 20.5390625 C12 23 12 23 10 25 C9.54625 24.525625 9.0925 24.05125 8.625 23.5625 C7.06741796 21.90972192 7.06741796 21.90972192 5 21 C5 22.65 5 24.3 5 26 C4.67 25.01 4.34 24.02 4 23 C1.69 22.67 -0.62 22.34 -3 22 C-2.67 19.69 -2.34 17.38 -2 15 C0 17 0 17 1 20 C2.65 19.67 4.3 19.34 6 19 C6.3449145 17.66961551 6.67516582 16.33542939 7 15 C7.226875 14.13375 7.45375 13.2675 7.6875 12.375 C7.790625 11.59125 7.89375 10.8075 8 10 C6.15811388 7.94729537 6.15811388 7.94729537 4 7 C4 6.01 4 5.02 4 4 C3.01 3.67 2.02 3.34 1 3 C0.67 2.01 0.34 1.02 0 0 Z " fill="#3B8CB2" transform="translate(350,93)"/>
<path d="M0 0 C0.99 0.33 1.98 0.66 3 1 C-8.96801179 16.78686455 -23.69206293 32.06887214 -41 42 C-41.66 42 -42.32 42 -43 42 C-43 41.34 -43 40.68 -43 40 C-37.58823529 36 -37.58823529 36 -35 36 C-35 35.34 -35 34.68 -35 34 C-34.01 33.34 -33.02 32.68 -32 32 C-32.33 31.34 -32.66 30.68 -33 30 C-31.68 30 -30.36 30 -29 30 C-28.34 29.01 -27.68 28.02 -27 27 C-25.68 27 -24.36 27 -23 27 C-23 26.34 -23 25.68 -23 25 C-22.34 25 -21.68 25 -21 25 C-20.7421875 24.40445312 -20.484375 23.80890625 -20.21875 23.1953125 C-18.90066947 20.82107771 -17.59933194 19.57403559 -15.5 17.875 C-11.65867785 15.10387685 -11.65867785 15.10387685 -9.625 11.1015625 C-8.77689049 8.24979428 -7.28960449 7.23121507 -5 5.375 C-2.04427685 3.05444701 -2.04427685 3.05444701 0 0 Z " fill="#ACC2D0" transform="translate(362,324)"/>
<path d="M0 0 C1.32 0.66 2.64 1.32 4 2 C-0.19464532 7.96007848 -4.85221938 13.10370612 -10.0625 18.1875 C-10.75666016 18.87263672 -11.45082031 19.55777344 -12.16601562 20.26367188 C-13.50337146 21.5832471 -14.84262676 22.90090099 -16.18408203 24.21630859 C-18.47111678 26.46275601 -20.73759718 28.72877689 -23 31 C-21.90221036 26.05994663 -21.1443703 22.88211877 -17 19.6875 C-14 18 -14 18 -12 18 C-10.58622659 15.36095629 -9.62759865 12.92879371 -9 10 C-7.35 10 -5.7 10 -4 10 C-4.33 8.02 -4.66 6.04 -5 4 C-4.01 3.34 -3.02 2.68 -2 2 C-1.34 2.33 -0.68 2.66 0 3 C0 2.01 0 1.02 0 0 Z " fill="#428AAF" transform="translate(284,129)"/>
<path d="M0 0 C1.299375 0.7115625 1.299375 0.7115625 2.625 1.4375 C5.85387374 2.93234895 8.49033826 3.58218313 12 4 C12 4.33 12 4.66 12 5 C9.36 5 6.72 5 4 5 C3.92572162 8.34252724 3.93453047 10.8035914 5 14 C4.67 14.66 4.34 15.32 4 16 C3.01 16 2.02 16 1 16 C1 15.34 1 14.68 1 14 C-1.31 13.67 -3.62 13.34 -6 13 C-6 12.01 -6 11.02 -6 10 C-4.35 10 -2.7 10 -1 10 C-0.67 6.7 -0.34 3.4 0 0 Z " fill="#2782AA" transform="translate(379,176)"/>
<path d="M0 0 C0.66 0 1.32 0 2 0 C5 3.46153846 5 3.46153846 5 6 C5.66 6 6.32 6 7 6 C8.68762851 7.6454378 10.3540349 9.31288577 12 11 C12.66 11.33 13.32 11.66 14 12 C14 12.99 14 13.98 14 15 C15.65 14.34 17.3 13.68 19 13 C20.4606285 15.64738916 21 16.89448334 21 20 C22.30456502 21.45034604 22.30456502 21.45034604 24 22.6875 C24.99 23.450625 25.98 24.21375 27 25 C26.67 25.66 26.34 26.32 26 27 C5.75889896 10.26276807 5.75889896 10.26276807 0 2 C0 1.34 0 0.68 0 0 Z " fill="#A3BDCC" transform="translate(85,330)"/>
<path d="M0 0 C0.99 0 1.98 0 3 0 C2.57742724 1.4835001 2.13643678 2.96176424 1.6875 4.4375 C1.32205078 5.67306641 1.32205078 5.67306641 0.94921875 6.93359375 C0.47935547 7.95646484 0.47935547 7.95646484 0 9 C-0.99 9.33 -1.98 9.66 -3 10 C-4.26479144 11.8395705 -4.26479144 11.8395705 -5.3125 14.1875 C-5.7353125 15.07566406 -6.158125 15.96382812 -6.59375 16.87890625 C-9.1488379 22.5497819 -11.59481893 28.26393243 -14 34 C-14.33 34 -14.66 34 -15 34 C-14.50290893 27.82778588 -12.46257519 23.08860382 -9.75 17.5625 C-9.36714844 16.75490234 -8.98429687 15.94730469 -8.58984375 15.11523438 C-2.95903985 3.42990388 -2.95903985 3.42990388 0 0 Z " fill="#B3C7D4" transform="translate(69,115)"/>
<path d="M0 0 C0.99 0.66 1.98 1.32 3 2 C2.50628906 2.39832031 2.01257813 2.79664063 1.50390625 3.20703125 C0.54291016 4.00173828 0.54291016 4.00173828 -0.4375 4.8125 C-1.07558594 5.33457031 -1.71367187 5.85664063 -2.37109375 6.39453125 C-4.2548275 8.00834411 -4.2548275 8.00834411 -5 11 C-4.34 11.33 -3.68 11.66 -3 12 C-3.33 13.65 -3.66 15.3 -4 17 C-4.66 16.67 -5.32 16.34 -6 16 C-5.67 15.34 -5.34 14.68 -5 14 C-5.99 13.67 -6.98 13.34 -8 13 C-8 12.34 -8 11.68 -8 11 C-8.66 11 -9.32 11 -10 11 C-10.33 11.99 -10.66 12.98 -11 14 C-11.99 14.33 -12.98 14.66 -14 15 C-14.66 14.34 -15.32 13.68 -16 13 C-15.34773438 12.48050781 -14.69546875 11.96101563 -14.0234375 11.42578125 C-9.30839912 7.66348662 -4.61407865 3.88553991 0 0 Z " fill="#416A7F" transform="translate(386,273)"/>
<path d="M0 0 C0.66 0 1.32 0 2 0 C4.21538462 5.29230769 4.21538462 5.29230769 3.125 8.875 C2.75375 9.57625 2.3825 10.2775 2 11 C0.35 10.67 -1.3 10.34 -3 10 C-3.66 12.31 -4.32 14.62 -5 17 C-5.99 17 -6.98 17 -8 17 C-6.3341708 10.83643195 -3.12194714 5.51740344 0 0 Z " fill="#35667B" transform="translate(52,116)"/>
<path d="M0 0 C0.66 0 1.32 0 2 0 C2.33 1.98 2.66 3.96 3 6 C3.66 6 4.32 6 5 6 C4.67 7.98 4.34 9.96 4 12 C1.36 12 -1.28 12 -4 12 C-4 8.61976483 -3.12544378 6.16531063 -2 3 C-1.34 3 -0.68 3 0 3 C0 2.01 0 1.02 0 0 Z " fill="#2A84B1" transform="translate(306,275)"/>
<path d="M0 0 C0.99 0.33 1.98 0.66 3 1 C2.44444881 7.94438982 0.1838578 12.23233197 -5 16.8125 C-7.54266943 18.66652979 -8.94118058 19.6470593 -12 20 C-12 19.34 -12 18.68 -12 18 C-11.01 18 -10.02 18 -9 18 C-9 17.34 -9 16.68 -9 16 C-8.34 15.67 -7.68 15.34 -7 15 C-7 13.68 -7 12.36 -7 11 C-4 9 -4 9 -1 9 C-1.020625 7.700625 -1.04125 6.40125 -1.0625 5.0625 C-1.08399454 3.70834367 -1.07148199 2.35243917 -1 1 C-0.67 0.67 -0.34 0.34 0 0 Z " fill="#3F88AF" transform="translate(409,172)"/>
<path d="M0 0 C1.32 0.66 2.64 1.32 4 2 C3.67 2.33 3.34 2.66 3 3 C3.99 3.33 4.98 3.66 6 4 C5.34 5.65 4.68 7.3 4 9 C3.34 9 2.68 9 2 9 C2 8.34 2 7.68 2 7 C-0.31 7.33 -2.62 7.66 -5 8 C-5.33 9.32 -5.66 10.64 -6 12 C-6.99 12 -7.98 12 -9 12 C-9 9 -9 9 -7.03125 6.73828125 C-5.77828125 5.53751953 -5.77828125 5.53751953 -4.5 4.3125 C-3.6646875 3.50425781 -2.829375 2.69601563 -1.96875 1.86328125 C-1.3190625 1.24839844 -0.669375 0.63351563 0 0 Z " fill="#3288B4" transform="translate(263,137)"/>
<path d="M0 0 C2.475 0.99 2.475 0.99 5 2 C4.34 3.65 3.68 5.3 3 7 C1.68 7 0.36 7 -1 7 C-1 7.66 -1 8.32 -1 9 C-1.66 9 -2.32 9 -3 9 C-3 9.66 -3 10.32 -3 11 C-3.99 11 -4.98 11 -6 11 C-5.67 8.69 -5.34 6.38 -5 4 C-5.66 4 -6.32 4 -7 4 C-7.33 3.01 -7.66 2.02 -8 1 C-5.69 1.33 -3.38 1.66 -1 2 C-0.67 1.34 -0.34 0.68 0 0 Z " fill="#2884B1" transform="translate(355,114)"/>
<path d="M0 0 C0.33 0.99 0.66 1.98 1 3 C-0.50677741 5.32838635 -2.0190777 7.41303501 -3.75 9.5625 C-4.20632813 10.15224609 -4.66265625 10.74199219 -5.1328125 11.34960938 C-7.27467568 14.07027085 -9.098794 16.06586267 -12 18 C-11.67 16.35 -11.34 14.7 -11 13 C-10.34 13 -9.68 13 -9 13 C-8.7834375 11.329375 -8.7834375 11.329375 -8.5625 9.625 C-8 6 -8 6 -7 4 C-5.68 4 -4.36 4 -3 4 C-2.67 3.01 -2.34 2.02 -2 1 C-1.34 0.67 -0.68 0.34 0 0 Z " fill="#386379" transform="translate(377,328)"/>
<path d="M0 0 C2.5 1.5625 2.5 1.5625 5 4 C5.625 7.5 5.625 7.5 5 11 C2.875 13.5 2.875 13.5 0 15 C-3.85701519 15 -5.45515869 14.47315166 -8.375 11.9375 C-8.91125 11.298125 -9.4475 10.65875 -10 10 C-8.68 9.67 -7.36 9.34 -6 9 C-6 9.66 -6 10.32 -6 11 C-3.36 11.33 -0.72 11.66 2 12 C2.33 10.02 2.66 8.04 3 6 C2.34 6 1.68 6 1 6 C0.67 4.02 0.34 2.04 0 0 Z " fill="#5792B0" transform="translate(308,275)"/>
<path d="M0 0 C4.31255674 -0.42279968 6.37309762 -0.43099539 10 2.0625 C12 5 12 5 12 8.625 C11.06579141 11.77795399 10.58725064 13.08768431 8 15 C7.34 14.67 6.68 14.34 6 14 C6.20625 13.154375 6.4125 12.30875 6.625 11.4375 C7.05843012 7.46439054 6.2762763 4.75375382 5 1 C3.35 1 1.7 1 0 1 C0 0.67 0 0.34 0 0 Z " fill="#597B8B" transform="translate(251,22)"/>
<path d="M0 0 C4.38043772 3.60169324 8.40556329 7.3843199 12.375 11.4375 C16.93136945 16.08218952 21.72830989 20.18616 27 24 C25.140625 24.62109375 25.140625 24.62109375 23 25 C21.13768467 23.39633957 19.62647823 21.82440945 18 20 C14.19710332 16.08478148 10.37919646 12.25046533 6.1875 8.75 C3.74685979 6.69941644 1.67233043 4.7544266 0 2 C0 1.34 0 0.68 0 0 Z " fill="#D2E1EB" transform="translate(175,272)"/>
<path d="M0 0 C0.66 0.33 1.32 0.66 2 1 C1.01 2.485 1.01 2.485 0 4 C0.66 4 1.32 4 2 4 C2 4.66 2 5.32 2 6 C-0.49052766 8.134738 -3.08419214 9.54209607 -6 11 C-6.66 11.66 -7.32 12.32 -8 13 C-11 13 -11 13 -13 12 C-8.71 8.04 -4.42 4.08 0 0 Z " fill="#406B84" transform="translate(94,65)"/>
<path d="M0 0 C-23.34439382 10.35993808 -23.34439382 10.35993808 -31 10 C-27.65802181 6.65802181 -22.97046097 6.26628436 -18.48046875 5.09765625 C-15.23129908 4.07294617 -12.84160345 2.83664613 -10 1 C-6.10726626 -0.58887092 -3.99930753 -1.20409259 0 0 Z " fill="#A8C0CF" transform="translate(298,378)"/>
<path d="M0 0 C0.66 0.33 1.32 0.66 2 1 C2 1.66 2 2.32 2 3 C3.32 3.66 4.64 4.32 6 5 C3 6 3 6 0 5 C0 6.98 0 8.96 0 11 C-0.99 11 -1.98 11 -3 11 C-3.28875 10.360625 -3.5775 9.72125 -3.875 9.0625 C-4.82823451 6.84793921 -4.82823451 6.84793921 -7 6 C-4.69 4.02 -2.38 2.04 0 0 Z " fill="#3B6A7F" transform="translate(103,58)"/>
<path d="M0 0 C3.66640857 2.44427238 3.90536111 3.89947156 5.3125 8 C7.31020641 13.50438372 9.72554298 18.20518907 12.9609375 23.07421875 C13.30382812 23.70972656 13.64671875 24.34523437 14 25 C13.67 25.66 13.34 26.32 13 27 C0 6.70967742 0 6.70967742 0 0 Z " fill="#2D5466" transform="translate(151,229)"/>
<path d="M0 0 C3.3 0 6.6 0 10 0 C10 0.66 10 1.32 10 2 C10.99 2 11.98 2 13 2 C12.67 4.31 12.34 6.62 12 9 C10.68 9.33 9.36 9.66 8 10 C7.67 9.34 7.34 8.68 7 8 C7.66 7.01 8.32 6.02 9 5 C8.34 4.34 7.68 3.68 7 3 C7.33 2.34 7.66 1.68 8 1 C5.36 1 2.72 1 0 1 C0 0.67 0 0.34 0 0 Z " fill="#2682AF" transform="translate(338,208)"/>
<path d="M0 0 C2 1 2 1 5 3 C8.14221967 2.68493373 8.14221967 2.68493373 11 2 C12.125 6.75 12.125 6.75 11 9 C5.73829306 7.58832253 2.27828642 5.25149768 -2 2 C-1.34 1.34 -0.68 0.68 0 0 Z " fill="#446B80" transform="translate(116,375)"/>
<path d="M0 0 C2.97 0.495 2.97 0.495 6 1 C6 1.66 6 2.32 6 3 C14.415 2.01 14.415 2.01 23 1 C19.19717527 4.80282473 17.04750474 4.72362518 11.87109375 5.07421875 C7.6223498 4.96438727 4.7934155 3.89670775 1 2 C0.67 1.34 0.34 0.68 0 0 Z " fill="#609BB8" transform="translate(330,240)"/>
<path d="M0 0 C4.00453651 1.37298395 6.91685133 3.08350802 10 6 C11.3125 8.75 11.3125 8.75 12 11 C9.5 9.625 9.5 9.625 7 8 C7 7.34 7 6.68 7 6 C6.01 6 5.02 6 4 6 C4.33 6.99 4.66 7.98 5 9 C4.01 9.33 3.02 9.66 2 10 C2.33 7.36 2.66 4.72 3 2 C2.01 2 1.02 2 0 2 C0 1.34 0 0.68 0 0 Z " fill="#4D93B6" transform="translate(348,208)"/>
<path d="M0 0 C0.66 0 1.32 0 2 0 C2 0.66 2 1.32 2 2 C3.32 2.33 4.64 2.66 6 3 C4.37829621 4.00533667 2.75252763 5.00411907 1.125 6 C-0.23238281 6.8353125 -0.23238281 6.8353125 -1.6171875 7.6875 C-4 9 -4 9 -6 9 C-5.690625 8.4225 -5.38125 7.845 -5.0625 7.25 C-4.07416636 5.15705816 -3.4831387 3.25464725 -3 1 C-2.01 1.33 -1.02 1.66 0 2 C0 1.34 0 0.68 0 0 Z " fill="#436D82" transform="translate(321,376)"/>
<path d="M0 0 C0.33 0.99 0.66 1.98 1 3 C-3.29 7.29 -7.58 11.58 -12 16 C-12.66 15.34 -13.32 14.68 -14 14 C-13.01 13.67 -12.02 13.34 -11 13 C-11 11.68 -11 10.36 -11 9 C-9.36816893 7.94410931 -7.69207001 6.9563874 -6 6 C-3.89711278 4.08425497 -1.96734962 2.05885425 0 0 Z " fill="#3B5F71" transform="translate(364,344)"/>
<path d="M0 0 C0 2.83967231 -0.40267181 5.23735711 -1 8 C-2.9375 8.5625 -2.9375 8.5625 -5 9 C-5.33 8.67 -5.66 8.34 -6 8 C-7.63472882 7.91299658 -9.27314055 7.89298937 -10.91015625 7.90234375 C-12.39418945 7.90717773 -12.39418945 7.90717773 -13.90820312 7.91210938 C-15.46958008 7.92467773 -15.46958008 7.92467773 -17.0625 7.9375 C-18.62967773 7.94426758 -18.62967773 7.94426758 -20.22851562 7.95117188 C-22.8190666 7.96300087 -25.40950559 7.97948311 -28 8 C-28 7.67 -28 7.34 -28 7 C-27.10075806 7.00169189 -27.10075806 7.00169189 -26.18334961 7.00341797 C-23.43362654 6.99121702 -20.68661336 6.93345291 -17.9375 6.875 C-16.52307617 6.87886719 -16.52307617 6.87886719 -15.08007812 6.8828125 C-8.89218149 6.71032758 -5.57161711 5.69045168 -1.14672852 1.28173828 C-0.76830811 0.85876465 -0.3898877 0.43579102 0 0 Z " fill="#79ABC4" transform="translate(276,176)"/>
<path d="M0 0 C3.96 0 7.92 0 12 0 C13.25541557 3.76624671 12.37061958 5.37188934 11 9 C10.34 9 9.68 9 9 9 C8.67 7.02 8.34 5.04 8 3 C5.3260876 2.10869587 2.76276177 1.52268466 0 1 C0 0.67 0 0.34 0 0 Z " fill="#277EA7" transform="translate(338,93)"/>
<path d="M0 0 C1.60294922 0.01353516 1.60294922 0.01353516 3.23828125 0.02734375 C4.04652344 0.03894531 4.85476562 0.05054687 5.6875 0.0625 C5.6875 0.7225 5.6875 1.3825 5.6875 2.0625 C3.45899723 2.40024332 1.22966533 2.7325187 -1 3.0625 C-2.86205078 3.3409375 -2.86205078 3.3409375 -4.76171875 3.625 C-7.67136371 3.98350411 -10.38950022 4.15192256 -13.3125 4.0625 C-12.6525 3.7325 -11.9925 3.4025 -11.3125 3.0625 C-11.3125 2.4025 -11.3125 1.7425 -11.3125 1.0625 C-7.47525828 0.15836327 -3.93747726 -0.04326898 0 0 Z " fill="#507282" transform="translate(196.3125,20.9375)"/>
<path d="M0 0 C0.66 0.33 1.32 0.66 2 1 C1.67 1.33 1.34 1.66 1 2 C1.66 2.33 2.32 2.66 3 3 C3 2.34 3 1.68 3 1 C4.65 1 6.3 1 8 1 C7.67 2.65 7.34 4.3 7 6 C3.65747276 6.07427838 1.1964086 6.06546953 -2 5 C-2 4.34 -2 3.68 -2 3 C-2.99 2.67 -3.98 2.34 -5 2 C-2.625 0.9375 -2.625 0.9375 0 0 Z " fill="#3E6E87" transform="translate(148,33)"/>
<path d="M0 0 C0.66 0.33 1.32 0.66 2 1 C2 1.66 2 2.32 2 3 C2.99 3.66 3.98 4.32 5 5 C3.35 6.32 1.7 7.64 0 9 C-1.32 8.01 -2.64 7.02 -4 6 C-2.25 1.125 -2.25 1.125 0 0 Z " fill="#3B6A82" transform="translate(346,356)"/>
<path d="M0 0 C0.33 0.99 0.66 1.98 1 3 C0.01 4.485 0.01 4.485 -1 6 C-1 6.99 -1 7.98 -1 9 C-3.70879335 10.35439668 -6.00933268 10.06501451 -9 10 C-8.06409496 8.8944811 -7.12620142 7.79064547 -6.1875 6.6875 C-5.66542969 6.07261719 -5.14335937 5.45773438 -4.60546875 4.82421875 C-3.12827531 3.14575321 -1.59960869 1.56117966 0 0 Z " fill="#4C91B4" transform="translate(279,120)"/>
<path d="M0 0 C0 0.66 0 1.32 0 2 C0.66 2 1.32 2 2 2 C2 3.65 2 5.3 2 7 C-0.97 6.505 -0.97 6.505 -4 6 C-3.67 5.01 -3.34 4.02 -3 3 C-3.99 2.67 -4.98 2.34 -6 2 C-6.33 1.34 -6.66 0.68 -7 0 C-3.98968256 -0.93423645 -3.13349732 -1.04449911 0 0 Z " fill="#398CBA" transform="translate(348,116)"/>
<path d="M0 0 C0.66 0.33 1.32 0.66 2 1 C2 4 2 4 0.390625 5.68359375 C-0.31578125 6.26238281 -1.0221875 6.84117188 -1.75 7.4375 C-4.63588709 9.85263955 -7.3903479 12.28161239 -10 15 C-10.25 12.6875 -10.25 12.6875 -10 10 C-7.95575462 8.02389614 -6.8823175 7 -4 7 C-3.67 6.01 -3.34 5.02 -3 4 C-2.34 4 -1.68 4 -1 4 C-0.67 2.68 -0.34 1.36 0 0 Z " fill="#476C7E" transform="translate(196,65)"/>
<path d="M0 0 C-1.66751148 3.94139078 -4.22710649 6.7892812 -7 10 C-7.99 9.34 -8.98 8.68 -10 8 C-9.25 6.0625 -9.25 6.0625 -8 4 C-5.875 3.25 -5.875 3.25 -4 3 C-4 2.34 -4 1.68 -4 1 C-2 0 -2 0 0 0 Z " fill="#3A8BB2" transform="translate(293,177)"/>
<path d="M0 0 C-3.47328574 2.77862859 -7.0412468 4.98463473 -11 7 C-11.99 6.67 -12.98 6.34 -14 6 C-13.67 5.34 -13.34 4.68 -13 4 C-12.01 4 -11.02 4 -10 4 C-10 3.01 -10 2.02 -10 1 C-6.78548731 -0.60725635 -3.56387464 -0.05748185 0 0 Z " fill="#CADBE3" transform="translate(222,34)"/>
<path d="M0 0 C-2.81656132 2.81656132 -4.61601605 2.98950864 -8.57421875 3.09765625 C-9.94534658 3.09103244 -11.31645717 3.07914198 -12.6875 3.0625 C-13.38939453 3.05798828 -14.09128906 3.05347656 -14.81445312 3.04882812 C-16.54300538 3.03706927 -18.27151365 3.01913454 -20 3 C-13.8786682 -0.39920457 -6.85124296 -0.14577113 0 0 Z " fill="#305A6C" transform="translate(319,322)"/>
<path d="M0 0 C2.97 0.495 2.97 0.495 6 1 C5.67 2.65 5.34 4.3 5 6 C3.1875 6.625 3.1875 6.625 1 7 C0.01 6.34 -0.98 5.68 -2 5 C-1.34 3.35 -0.68 1.7 0 0 Z " fill="#277FAC" transform="translate(339,116)"/>
<path d="M0 0 C0.66 0 1.32 0 2 0 C1.51814387 4.7221901 -0.69663433 7.70054372 -3.5625 11.3125 C-3.98724609 11.86228516 -4.41199219 12.41207031 -4.84960938 12.97851562 C-5.89181259 14.3251827 -6.94483843 15.66346201 -8 17 C-8.33 16.01 -8.66 15.02 -9 14 C-7.1875 10.8125 -7.1875 10.8125 -5 8 C-4.34 8 -3.68 8 -3 8 C-1.92474806 5.34771188 -0.90543849 2.71631546 0 0 Z " fill="#C3D6E1" transform="translate(174,67)"/>
<path d="M0 0 C0.99 0.33 1.98 0.66 3 1 C2.360625 1.2475 1.72125 1.495 1.0625 1.75 C-1.18741541 2.81562433 -1.18741541 2.81562433 -1.75 5.125 C-1.8325 5.74375 -1.915 6.3625 -2 7 C-2.99 7 -3.98 7 -5 7 C-5.99 7.495 -5.99 7.495 -7 8 C-7.99 7.67 -8.98 7.34 -10 7 C-8.4050992 5.80008401 -6.79873853 4.61538682 -5.1875 3.4375 C-3.84751953 2.44556641 -3.84751953 2.44556641 -2.48046875 1.43359375 C-1.66191406 0.96050781 -0.84335938 0.48742188 0 0 Z " fill="#D0E0E8" transform="translate(127,60)"/>
<path d="M0 0 C0.33 0.66 0.66 1.32 1 2 C1.99 2 2.98 2 4 2 C5.19287411 5.87684087 6 8.91621923 6 13 C6.66 13.33 7.32 13.66 8 14 C7.34 14.66 6.68 15.32 6 16 C4.99303432 13.89915791 3.9946411 11.79420511 3 9.6875 C2.443125 8.51574219 1.88625 7.34398437 1.3125 6.13671875 C0 3 0 3 0 0 Z " fill="#608391" transform="translate(41,285)"/>
<path d="M0 0 C3.84223567 1.50944973 5.51995823 3.76843042 8 7 C9.64783606 8.68528688 11.31002677 10.35697047 13 12 C10 12 10 12 7.51953125 9.8828125 C6.62621094 8.97273438 5.73289063 8.06265625 4.8125 7.125 C3.91144531 6.22007812 3.01039063 5.31515625 2.08203125 4.3828125 C0 2 0 2 0 0 Z " fill="#305A6C" transform="translate(178,273)"/>
<path d="M0 0 C0.66 0 1.32 0 2 0 C1.66637484 3.11383479 1.07888595 3.93356972 -1.375 6 C-2.24125 6.66 -3.1075 7.32 -4 8 C-5.76323505 10.12603185 -5.76323505 10.12603185 -7 12 C-7.66 11.67 -8.32 11.34 -9 11 C-7.68823998 9.35357683 -6.3755713 7.70787757 -5.0625 6.0625 C-4.33160156 5.14597656 -3.60070312 4.22945313 -2.84765625 3.28515625 C-1 1 -1 1 0 0 Z " fill="#CCDDE8" transform="translate(83,97)"/>
<path d="M0 0 C2.625 0.375 2.625 0.375 5 1 C5.1875 3.375 5.1875 3.375 5 6 C4.01 6.66 3.02 7.32 2 8 C1.71125 7.38125 1.4225 6.7625 1.125 6.125 C0.06279958 3.86674235 0.06279958 3.86674235 -2 2 C-1.34 1.34 -0.68 0.68 0 0 Z " fill="#34667F" transform="translate(332,366)"/>
<path d="M0 0 C4.30041016 3.86913693 6.78146659 9.32296567 7.25 15.0625 C7.1675 15.701875 7.085 16.34125 7 17 C6.731875 16.443125 6.46375 15.88625 6.1875 15.3125 C5.34818829 13.67805088 4.4453106 12.07551767 3.5 10.5 C0 4.66666667 0 4.66666667 0 0 Z " fill="#CBDAE3" transform="translate(150,231)"/>
<path d="M0 0 C0.66 0.33 1.32 0.66 2 1 C0.515 2.485 0.515 2.485 -1 4 C-0.34 4.33 0.32 4.66 1 5 C0.67 5.99 0.34 6.98 0 8 C-1.98 8.33 -3.96 8.66 -6 9 C-5.52797514 4.75177626 -3.03344482 2.80010291 0 0 Z " fill="#5A9FBC" transform="translate(292,106)"/>
<path d="M0 0 C2.15377564 2.62198774 3.40072174 4.64404172 4 8 C3.01 8.495 3.01 8.495 2 9 C1.34 6.03 0.68 3.06 0 0 Z M7 0 C7.33 0 7.66 0 8 0 C8 2.31 8 4.62 8 7 C6.68 7 5.36 7 4 7 C5.875 1.125 5.875 1.125 7 0 Z " fill="#2881A9" transform="translate(348,105)"/>
<path d="M0 0 C-4.455 3.465 -4.455 3.465 -9 7 C-9.66 6.34 -10.32 5.68 -11 5 C-10.375 2.5625 -10.375 2.5625 -9 0 C-5.40643641 -1.0704232 -3.5731613 -1.19105377 0 0 Z " fill="#4C6E81" transform="translate(211,58)"/>
<path d="M0 0 C0.66 1.32 1.32 2.64 2 4 C1.34 4.4125 0.68 4.825 0 5.25 C-0.99 6.11625 -0.99 6.11625 -2 7 C-2 8.32 -2 9.64 -2 11 C-2.66 11 -3.32 11 -4 11 C-4.66 9.68 -5.32 8.36 -6 7 C-4.02 4.69 -2.04 2.38 0 0 Z " fill="#4D7488" transform="translate(69,91)"/>
<path d="M0 0 C0.99 0 1.98 0 3 0 C2.49477778 4.37859255 -0.17827222 6.81651224 -3 10 C-3.33 9.01 -3.66 8.02 -4 7 C-3.34 6.34 -2.68 5.68 -2 5 C-1.63837971 3.67405895 -1.30271961 2.34061543 -1 1 C-0.67 0.67 -0.34 0.34 0 0 Z " fill="#4188B0" transform="translate(265,150)"/>
<path d="M0 0 C4.05533141 3.53541713 5.54328116 5.63355364 6 11 C6.31674575 12.33737094 6.64270064 13.67288808 7 15 C4.47138427 12.73946101 3.16143472 10.60099936 1.8125 7.5 C1.46832031 6.7265625 1.12414063 5.953125 0.76953125 5.15625 C0 3 0 3 0 0 Z " fill="#ADC2D1" transform="translate(58,286)"/>
<path d="M0 0 C0.66 0.33 1.32 0.66 2 1 C0.54782324 2.50596108 -0.91192861 4.00462104 -2.375 5.5 C-3.18710938 6.3353125 -3.99921875 7.170625 -4.8359375 8.03125 C-7 10 -7 10 -9 10 C-8.67 8.68 -8.34 7.36 -8 6 C-6.68 5.67 -5.36 5.34 -4 5 C-4 4.01 -4 3.02 -4 2 C-2.125 0.9375 -2.125 0.9375 0 0 Z " fill="#345B6E" transform="translate(97,80)"/>
<path d="M0 0 C0.66 0.33 1.32 0.66 2 1 C1.34 2.65 0.68 4.3 0 6 C-0.66 6 -1.32 6 -2 6 C-2.33 6.99 -2.66 7.98 -3 9 C-5.0625 9.6875 -5.0625 9.6875 -7 10 C-2.85714286 2.42857143 -2.85714286 2.42857143 0 0 Z " fill="#285568" transform="translate(173,74)"/>
<path d="M0 0 C1.65 0.33 3.3 0.66 5 1 C1.45960866 3.9156164 -2.1626772 6.50127818 -6 9 C-5.25 6.5625 -5.25 6.5625 -4 4 C-1.875 3.1875 -1.875 3.1875 0 3 C0 2.01 0 1.02 0 0 Z " fill="#C7D9E4" transform="translate(202,42)"/>
<path d="M0 0 C3.0390625 0.4609375 3.0390625 0.4609375 6.625 1.375 C7.81351563 1.67148437 9.00203125 1.96796875 10.2265625 2.2734375 C11.14179688 2.51320313 12.05703125 2.75296875 13 3 C12.34 3.66 11.68 4.32 11 5 C6.4029922 4.64638402 2.31900631 3.58012426 -2 2 C-1.34 1.34 -0.68 0.68 0 0 Z " fill="#9DB5C7" transform="translate(167,384)"/>
<path d="M0 0 C3.63 2.31 7.26 4.62 11 7 C7 8 7 8 3.8125 6.3125 C1 4 1 4 0 0 Z " fill="#5D7F90" transform="translate(211,285)"/>
<path d="M0 0 C0.33 0 0.66 0 1 0 C2.700773 6.73281213 3.10765663 12.13252891 2 19 C1.67 19 1.34 19 1 19 C-0.15316726 12.65758005 -0.09507063 6.43311296 0 0 Z " fill="#7F99AB" transform="translate(28,224)"/>
<path d="M0 0 C0.99 0.33 1.98 0.66 3 1 C2.55066068 5.67312888 1.98090266 8.38775335 -1 12 C-1.02687279 10.18757948 -1.04633715 8.37504767 -1.0625 6.5625 C-1.07410156 5.55316406 -1.08570313 4.54382813 -1.09765625 3.50390625 C-1 1 -1 1 0 0 Z " fill="#5292B4" transform="translate(409,172)"/>
<path d="M0 0 C0.66 0.99 1.32 1.98 2 3 C1.3203125 5.26171875 1.3203125 5.26171875 0.125 7.6875 C-0.26429687 8.49574219 -0.65359375 9.30398437 -1.0546875 10.13671875 C-1.52261719 11.05904297 -1.52261719 11.05904297 -2 12 C-2.99 12 -3.98 12 -5 12 C-3.68938409 7.76570244 -2.05643741 3.92592596 0 0 Z " fill="#5D7E8E" transform="translate(49,121)"/>
<path d="M0 0 C1.0326802 2.78823655 1.04509293 3.8677274 0.0625 6.75 C-0.288125 7.4925 -0.63875 8.235 -1 9 C-1.99 9 -2.98 9 -4 9 C-4 5.00095031 -2.27413033 3.19799578 0 0 Z " fill="#547688" transform="translate(62,100)"/>
<path d="M0 0 C3.3 0.33 6.6 0.66 10 1 C10 1.33 10 1.66 10 2 C7.95928485 2.33910994 5.91737379 2.67102704 3.875 3 C2.16957031 3.2784375 2.16957031 3.2784375 0.4296875 3.5625 C-2.76137602 3.96956049 -5.78817791 4.07809902 -9 4 C-9 3.67 -9 3.34 -9 3 C-6.03 2.34 -3.06 1.68 0 1 C0 0.67 0 0.34 0 0 Z " fill="#6F8C9C" transform="translate(249,404)"/>
<path d="M0 0 C0.66 0 1.32 0 2 0 C0.58707905 4.8274799 -1.42974154 8.7162359 -4 13 C-4.33 11.68 -4.66 10.36 -5 9 C-4.34 9 -3.68 9 -3 9 C-2.67 7.02 -2.34 5.04 -2 3 C-1.34 3 -0.68 3 0 3 C0 2.01 0 1.02 0 0 Z " fill="#547685" transform="translate(392,303)"/>
<path d="M0 0 C-0.33 0.99 -0.66 1.98 -1 3 C-7.625 4.25 -7.625 4.25 -11 2 C-9.54494642 1.47007308 -8.08581873 0.9513211 -6.625 0.4375 C-5.81289063 0.14746094 -5.00078125 -0.14257812 -4.1640625 -0.44140625 C-2 -1 -2 -1 0 0 Z " fill="#1F556A" transform="translate(340,305)"/>
<path d="M0 0 C0.515625 0.2475 1.03125 0.495 1.5625 0.75 C0.964375 1.018125 0.36625 1.28625 -0.25 1.5625 C-2.46762126 2.61353037 -2.46762126 2.61353037 -3.875 4.3125 C-5.92949044 6.20263121 -7.71744277 6.3824247 -10.4375 6.75 C-9.15564628 2.90443885 -7.65170223 2.32931973 -4.2265625 0.46875 C-2.4375 -0.25 -2.4375 -0.25 0 0 Z " fill="#2E576C" transform="translate(220.4375,36.25)"/>
<path d="M0 0 C1.77226453 0.28284018 3.542788 0.57660498 5.3125 0.875 C6.29863281 1.03742188 7.28476563 1.19984375 8.30078125 1.3671875 C11 2 11 2 14 4 C4.41885965 4.56359649 4.41885965 4.56359649 0 1 C0 0.67 0 0.34 0 0 Z " fill="#D7E4ED" transform="translate(247,320)"/>
<path d="M0 0 C5.84615385 5.53846154 5.84615385 5.53846154 7 9 C6.67 9.99 6.34 10.98 6 12 C4.99157547 10.56839732 3.99352109 9.12948547 3 7.6875 C2.1646875 6.48673828 2.1646875 6.48673828 1.3125 5.26171875 C0 3 0 3 0 0 Z " fill="#2D5C6D" transform="translate(64,303)"/>
<path d="M0 0 C0.66 0.33 1.32 0.66 2 1 C0.68 3.31 -0.64 5.62 -2 8 C-4.475 7.01 -4.475 7.01 -7 6 C-6.21625 5.38125 -5.4325 4.7625 -4.625 4.125 C-2.03162353 2.10141339 -2.03162353 2.10141339 0 0 Z " fill="#BED6E1" transform="translate(381,295)"/>
<path d="M0 0 C0.66 0.66 1.32 1.32 2 2 C1.828125 4.09375 1.828125 4.09375 1.25 6.5 C0.97929687 7.69109375 0.97929687 7.69109375 0.703125 8.90625 C0 11 0 11 -2 13 C-2.8677564 10.57028208 -3.20863003 9.4619665 -2.125 7.0625 C-1.75375 6.381875 -1.3825 5.70125 -1 5 C-0.62331656 3.34259285 -0.27942455 1.67654729 0 0 Z " fill="#4E7484" transform="translate(403,274)"/>
<path d="M0 0 C0.66 0 1.32 0 2 0 C6 6.75 6 6.75 6 9 C3.5067466 8.00269864 2.22532561 7.34925469 0.75 5.0625 C0 3 0 3 0 0 Z " fill="#46697E" transform="translate(165,232)"/>
<path d="M0 0 C0.66 0 1.32 0 2 0 C4.27678571 8.03571429 4.27678571 8.03571429 3 12 C0.50494038 9.50494038 0.64051624 8.32671112 0.375 4.875 C0.30023438 3.96492187 0.22546875 3.05484375 0.1484375 2.1171875 C0.09945312 1.41851562 0.05046875 0.71984375 0 0 Z " fill="#4F7282" transform="translate(154,198)"/>
<path d="M0 0 C0.598125 0.226875 1.19625 0.45375 1.8125 0.6875 C1.008125 1.368125 0.20375 2.04875 -0.625 2.75 C-3.61038711 6.17227302 -3.92531251 8.2303126 -4.1875 12.6875 C-4.5175 12.6875 -4.8475 12.6875 -5.1875 12.6875 C-5.26871924 11.08417209 -5.32679134 9.47965974 -5.375 7.875 C-5.40980469 6.98167969 -5.44460938 6.08835938 -5.48046875 5.16796875 C-5.1875 2.6875 -5.1875 2.6875 -3.8125 0.84375 C-2.1875 -0.3125 -2.1875 -0.3125 0 0 Z " fill="#5C97B7" transform="translate(383.1875,161.3125)"/>
<path d="M0 0 C0.33 0.66 0.66 1.32 1 2 C0.06553465 4.03144641 -0.93224776 6.03533587 -2 8 C-2.99 8 -3.98 8 -5 8 C-5 5 -5 5 -2.5 2.3125 C-1.675 1.549375 -0.85 0.78625 0 0 Z " fill="#5B98BA" transform="translate(259,141)"/>
<path d="M0 0 C1.32 0.33 2.64 0.66 4 1 C1.525 5.455 1.525 5.455 -1 10 C-1.33 10 -1.66 10 -2 10 C-2.17942163 6.05272412 -2.09350689 3.4019487 0 0 Z " fill="#55788B" transform="translate(172,94)"/>
<path d="M0 0 C0.66 0.33 1.32 0.66 2 1 C-0.25740623 3.33524782 -2.2805761 5.18705073 -5 7 C-6.32 6.67 -7.64 6.34 -9 6 C-6.03 4.02 -3.06 2.04 0 0 Z " fill="#617F91" transform="translate(121,46)"/>
<path d="M0 0 C0.66 0 1.32 0 2 0 C1.67 1.65 1.34 3.3 1 5 C0.34 5 -0.32 5 -1 5 C-1.66 6.32 -2.32 7.64 -3 9 C-3.66 9 -4.32 9 -5 9 C-4.42676569 5.13066838 -2.61046448 2.84777943 0 0 Z " fill="#2E596E" transform="translate(358,332)"/>
<path d="M0 0 C4.41889613 1.35021826 6.34345343 3.26115668 9 7 C7.35 7 5.7 7 4 7 C4 6.01 4 5.02 4 4 C3.01 3.67 2.02 3.34 1 3 C0.67 2.01 0.34 1.02 0 0 Z " fill="#5F99B7" transform="translate(350,93)"/>
<path d="M0 0 C0.66 0.33 1.32 0.66 2 1 C2 2.66666667 2 4.33333333 2 6 C0.02 6 -1.96 6 -4 6 C-2.84826645 3.53199953 -1.95216435 1.95216435 0 0 Z " fill="#5198BA" transform="translate(331,95)"/>
<path d="M0 0 C0.99 0.33 1.98 0.66 3 1 C2.34 2.65 1.68 4.3 1 6 C0.34 5.67 -0.32 5.34 -1 5 C-3.09821215 5.39938767 -3.09821215 5.39938767 -5 6 C-3.35 4.02 -1.7 2.04 0 0 Z " fill="#5E8091" transform="translate(86,72)"/>
<path d="M0 0 C4.31392226 0.4793247 6.16569547 1.7457985 9 5 C8.01 5.495 8.01 5.495 7 6 C3.9375 4.75 3.9375 4.75 1 3 C0.67 2.01 0.34 1.02 0 0 Z " fill="#597A8A" transform="translate(129,384)"/>
<path d="M0 0 C1.67542976 0.28604898 3.34385343 0.61781233 5 1 C0.25 5.875 0.25 5.875 -2 7 C-2 6.01 -2 5.02 -2 4 C-1.34 4 -0.68 4 0 4 C-0.33 3.01 -0.66 2.02 -1 1 C-0.67 0.67 -0.34 0.34 0 0 Z " fill="#4A7184" transform="translate(340,364)"/>
<path d="M0 0 C3 1 3 1 4.75 3.3125 C6.14972335 6.32190521 5.95287489 6.98041673 5 10 C4.16121545 8.71186658 3.32913217 7.41936744 2.5 6.125 C2.0359375 5.40570313 1.571875 4.68640625 1.09375 3.9453125 C0 2 0 2 0 0 Z " fill="#61808F" transform="translate(55,314)"/>
<path d="M0 0 C3.25543229 0.34879632 4.01873107 1.02133261 6.25 3.5625 C6.8275 4.366875 7.405 5.17125 8 6 C6.68 6 5.36 6 4 6 C4 5.34 4 4.68 4 4 C2.68 3.34 1.36 2.68 0 2 C0 1.34 0 0.68 0 0 Z " fill="#5396B6" transform="translate(300,269)"/>
<path d="M0 0 C3.63559661 3.43361902 6.36113346 6.7973607 9 11 C8.01 11.495 8.01 11.495 7 12 C5.82767315 10.3790787 4.6622923 8.75313167 3.5 7.125 C2.8503125 6.22007812 2.200625 5.31515625 1.53125 4.3828125 C0 2 0 2 0 0 Z " fill="#CEDDE9" transform="translate(165,259)"/>
<path d="M0 0 C4.31392226 0.4793247 6.16569547 1.7457985 9 5 C8.67 5.99 8.34 6.98 8 8 C7.34 7.34 6.68 6.68 6 6 C5.01 5.67 4.02 5.34 3 5 C3.33 4.34 3.66 3.68 4 3 C2.68 2.01 1.36 1.02 0 0 Z " fill="#99A7AF" transform="translate(108,112)"/>
<path d="M0 0 C-1.485 1.98 -1.485 1.98 -3 4 C-5.96175123 3.38722388 -7.38058783 2.74627478 -10 1 C-6.78548731 -0.60725635 -3.56387464 -0.05748185 0 0 Z " fill="#D7E1E8" transform="translate(198,36)"/>
<path d="M0 0 C0.33 0.66 0.66 1.32 1 2 C1.66 2 2.32 2 3 2 C4.6875 4.3125 4.6875 4.3125 6 7 C5.67 7.99 5.34 8.98 5 10 C3.02 7.03 1.04 4.06 -1 1 C-0.67 0.67 -0.34 0.34 0 0 Z " fill="#577B8A" transform="translate(67,330)"/>
<path d="M0 0 C0.89674777 2.51089376 1.13172674 3.64535109 0.1875 6.1875 C-1 8 -1 8 -3 9 C-2.25 2.25 -2.25 2.25 0 0 Z " fill="#2A566B" transform="translate(382,297)"/>
<path d="M0 0 C0.66 0.33 1.32 0.66 2 1 C-0.31 3.97 -2.62 6.94 -5 10 C-5.33 9.01 -5.66 8.02 -6 7 C-4.78515625 5.17578125 -4.78515625 5.17578125 -3.0625 3.3125 C-2.49660156 2.68988281 -1.93070312 2.06726563 -1.34765625 1.42578125 C-0.90292969 0.95527344 -0.45820312 0.48476563 0 0 Z " fill="#96A3AB" transform="translate(117,277)"/>
<path d="M0 0 C0.99 0 1.98 0 3 0 C3 0.99 3 1.98 3 3 C3.66 3.33 4.32 3.66 5 4 C5 5.66666667 5 7.33333333 5 9 C0 3.375 0 3.375 0 0 Z " fill="#2D596B" transform="translate(170,262)"/>
<path d="M0 0 C1.65 1.32 3.3 2.64 5 4 C4.67 5.98 4.34 7.96 4 10 C3.34 9.67 2.68 9.34 2 9 C1.3671875 6.93359375 1.3671875 6.93359375 0.875 4.4375 C0.70742187 3.61121094 0.53984375 2.78492188 0.3671875 1.93359375 C0.24601563 1.29550781 0.12484375 0.65742188 0 0 Z " fill="#215367" transform="translate(147,218)"/>
<path d="M0 0 C0.99 0.33 1.98 0.66 3 1 C2 3 1 5 0 7 C-0.99 6.67 -1.98 6.34 -3 6 C-2.34 5.34 -1.68 4.68 -1 4 C-1.33 3.01 -1.66 2.02 -2 1 C-1.34 0.67 -0.68 0.34 0 0 Z " fill="#3081AB" transform="translate(341,213)"/>
<path d="M0 0 C0.66 0.99 1.32 1.98 2 3 C1.67 3.99 1.34 4.98 1 6 C0.01 5.34 -0.98 4.68 -2 4 C-3.9896995 3.60986284 -5.99019869 3.26797351 -8 3 C-8 2.67 -8 2.34 -8 2 C-5.36 1.34 -2.72 0.68 0 0 Z " fill="#4E8DB2" transform="translate(393,158)"/>
<path d="M0 0 C1.65 0 3.3 0 5 0 C2.51047079 2.66735273 0.36591866 4.55746343 -3 6 C-3.66 5.34 -4.32 4.68 -5 4 C-4.360625 3.71125 -3.72125 3.4225 -3.0625 3.125 C-0.84793921 2.17176549 -0.84793921 2.17176549 0 0 Z " fill="#385E71" transform="translate(117,63)"/>
<path d="M0 0 C0.66 0.33 1.32 0.66 2 1 C1.64950425 4.24208567 1.43778819 5.61527704 -1.0625 7.8125 C-1.701875 8.204375 -2.34125 8.59625 -3 9 C-2.67 7.35 -2.34 5.7 -2 4 C-1.34 4 -0.68 4 0 4 C0 2.68 0 1.36 0 0 Z " fill="#517385" transform="translate(368,337)"/>
<path d="M0 0 C3.3 0 6.6 0 10 0 C10.66 1.32 11.32 2.64 12 4 C10.35 4 8.7 4 7 4 C7.33 3.01 7.66 2.02 8 1 C5.36 1 2.72 1 0 1 C0 0.67 0 0.34 0 0 Z " fill="#28779E" transform="translate(338,208)"/>
<path d="M0 0 C2.4375 1.1875 2.4375 1.1875 5 3 C5.8125 5.6875 5.8125 5.6875 6 8 C1.125 3.375 1.125 3.375 0 0 Z " fill="#619EB9" transform="translate(367,181)"/>
<path d="M0 0 C0 2.83967231 -0.40267181 5.23735711 -1 8 C-2.32 8.33 -3.64 8.66 -5 9 C-4.5206753 4.68607774 -3.2542015 2.83430453 0 0 Z " fill="#67A0C1" transform="translate(276,176)"/>
<path d="M0 0 C0.33 0.99 0.66 1.98 1 3 C-0.9375 6.1875 -0.9375 6.1875 -3 9 C-3.89674777 6.48910624 -4.13172674 5.35464891 -3.1875 2.8125 C-2 1 -2 1 0 0 Z " fill="#4C6F7E" transform="translate(377,328)"/>
<path d="M0 0 C5.75 1.75 5.75 1.75 8 4 C2.46153846 4.36923077 2.46153846 4.36923077 0.125 2.5 C-0.24625 2.005 -0.6175 1.51 -1 1 C-0.67 0.67 -0.34 0.34 0 0 Z " fill="#608395" transform="translate(232,298)"/>
<path d="M0 0 C1 2 1 2 0.3125 4.5 C-1.15567038 7.29651501 -2.09303901 7.93411431 -5 9 C-3.7508258 5.54074837 -2.32472205 2.85306797 0 0 Z " fill="#D3DBE2" transform="translate(112,212)"/>
<path d="M0 0 C-1.44253657 3.36591866 -3.33264727 5.51047079 -6 8 C-5.62403791 5.21788056 -5.32681541 3.4120716 -3.5625 1.1875 C-2 0 -2 0 0 0 Z " fill="#4E8EAE" transform="translate(293,177)"/>
<path d="M0 0 C1.04449911 3.13349732 0.93423645 3.98968256 0 7 C-1.32 7.33 -2.64 7.66 -4 8 C-4 7.34 -4 6.68 -4 6 C-3.34 5.67 -2.68 5.34 -2 5 C-2 3.68 -2 2.36 -2 1 C-1.34 0.67 -0.68 0.34 0 0 Z " fill="#367EA2" transform="translate(369,157)"/>
<path d="M0 0 C1.65 0 3.3 0 5 0 C3.63016497 3.16115776 3.0109362 3.9927092 0 6 C0 4.02 0 2.04 0 0 Z " fill="#5897B9" transform="translate(275,139)"/>
<path d="M0 0 C0.99 0 1.98 0 3 0 C6 4.22222222 6 4.22222222 6 7 C3.00675737 5.9024777 2.15389099 5.32317108 0.75 2.375 C0.5025 1.59125 0.255 0.8075 0 0 Z " fill="#5D9CBB" transform="translate(326,118)"/>
<path d="M0 0 C0.61617187 0.18949219 1.23234375 0.37898438 1.8671875 0.57421875 C0.57621969 1.3878287 -0.71561125 2.20006921 -2.0078125 3.01171875 C-2.72710937 3.46417969 -3.44640625 3.91664062 -4.1875 4.3828125 C-6.1328125 5.57421875 -6.1328125 5.57421875 -8.1328125 6.57421875 C-6.59355861 2.85435517 -4.48364726 -0.89508709 0 0 Z " fill="#98A6AF" transform="translate(100.1328125,112.42578125)"/>
<path d="M0 0 C0.99 0 1.98 0 3 0 C1.52307692 4.67692308 1.52307692 4.67692308 -1.125 6.3125 C-2.053125 6.6528125 -2.053125 6.6528125 -3 7 C-1.125 2.25 -1.125 2.25 0 0 Z " fill="#BFCFDA" transform="translate(73,109)"/>
<path d="M0 0 C0.99 0.33 1.98 0.66 3 1 C0.36 2.98 -2.28 4.96 -5 7 C-5 6.01 -5 5.02 -5 4 C-4.34 4 -3.68 4 -3 4 C-3 3.34 -3 2.68 -3 2 C-2.01 1.34 -1.02 0.68 0 0 Z " fill="#386074" transform="translate(110,69)"/>
<path d="M0 0 C1.65 0 3.3 0 5 0 C4.67 1.32 4.34 2.64 4 4 C2.35 4 0.7 4 -1 4 C-0.67 2.68 -0.34 1.36 0 0 Z " fill="#265A75" transform="translate(105,58)"/>
<path d="M0 0 C0.66 0.33 1.32 0.66 2 1 C1.54625 1.598125 1.0925 2.19625 0.625 2.8125 C-0.63295913 4.50590652 -1.82984724 6.24477086 -3 8 C-3.66 6.68 -4.32 5.36 -5 4 C-3.35 2.68 -1.7 1.36 0 0 Z " fill="#24566B" transform="translate(335,355)"/>
<path d="M0 0 C1.9375 0.3125 1.9375 0.3125 4 1 C4.33 1.99 4.66 2.98 5 4 C2.69 4 0.38 4 -2 4 C-1.34 2.68 -0.68 1.36 0 0 Z " fill="#4893B4" transform="translate(279,172)"/>
<path d="M0 0 C2.5 2.3125 2.5 2.3125 5 5 C5 5.99 5 6.98 5 8 C3.0625 7.375 3.0625 7.375 1 6 C0.25 2.875 0.25 2.875 0 0 Z " fill="#6099B6" transform="translate(404,152)"/>
<path d="M0 0 C0.97608217 2.92824652 1.08226668 4.95613276 1 8 C0.01 7.67 -0.98 7.34 -2 7 C-3 4 -3 4 -2 1 C-1.34 0.67 -0.68 0.34 0 0 Z " fill="#457081" transform="translate(45,132)"/>
<path d="M0 0 C1.60031344 3.20062687 0.03173691 5.72271806 -1 9 C-3 6 -3 6 -2.75 3.375 C-2.5025 2.59125 -2.255 1.8075 -2 1 C-1.34 0.67 -0.68 0.34 0 0 Z " fill="#5C7E8E" transform="translate(160,125)"/>
<path d="M0 0 C2.01822917 0.06510417 4.03645833 0.13020833 6.0546875 0.1953125 C4.4296875 1.7578125 4.4296875 1.7578125 2.0546875 3.1953125 C-1.1953125 2.8828125 -1.1953125 2.8828125 -3.9453125 2.1953125 C-1.9453125 0.1953125 -1.9453125 0.1953125 0 0 Z " fill="#D2E2E7" transform="translate(215.9453125,33.8046875)"/>
<path d="M0 0 C2.4375 0.375 2.4375 0.375 5 1 C5.33 1.66 5.66 2.32 6 3 C3.625 3.625 3.625 3.625 1 4 C0.34 3.34 -0.32 2.68 -1 2 C-0.67 1.34 -0.34 0.68 0 0 Z " fill="#255A6B" transform="translate(144,378)"/>
<path d="M0 0 C0.33 0.99 0.66 1.98 1 3 C1.66 3 2.32 3 3 3 C3 5.31 3 7.62 3 10 C0.64551835 7.44931155 0.01672076 6.28982642 -0.1875 2.75 C-0.125625 1.8425 -0.06375 0.935 0 0 Z " fill="#537587" transform="translate(30,243)"/>
<path d="M0 0 C0.66 0.33 1.32 0.66 2 1 C1.625 2.9375 1.625 2.9375 1 5 C0.01 5.495 0.01 5.495 -1 6 C-1.99 5.34 -2.98 4.68 -4 4 C-2.68 2.68 -1.36 1.36 0 0 Z " fill="#5292B6" transform="translate(286,165)"/>
<path d="M0 0 C0.66 0.33 1.32 0.66 2 1 C2.33 1.99 2.66 2.98 3 4 C1.125 4.625 1.125 4.625 -1 5 C-1.66 4.34 -2.32 3.68 -3 3 C-2.01 2.01 -1.02 1.02 0 0 Z " fill="#458FB6" transform="translate(374,150)"/>
<path d="M0 0 C0.66 0 1.32 0 2 0 C2 0.66 2 1.32 2 2 C2.99 1.67 3.98 1.34 5 1 C4.34 2.98 3.68 4.96 3 7 C0.64046906 4.64046906 0.50858587 3.22104383 0 0 Z " fill="#4B7688" transform="translate(162,109)"/>
<path d="M0 0 C1.98 0.495 1.98 0.495 4 1 C2.02 3.97 2.02 3.97 0 7 C-1.04449911 3.86650268 -0.93423645 3.01031744 0 0 Z " fill="#507486" transform="translate(177,86)"/>
<path d="M0 0 C1 3 1 3 0 6 C-1.32 5.67 -2.64 5.34 -4 5 C-2.25 1.125 -2.25 1.125 0 0 Z " fill="#255970" transform="translate(98,64)"/>
<path d="M0 0 C0.99 0.99 1.98 1.98 3 3 C1.68 4.32 0.36 5.64 -1 7 C-1 3 -1 3 0 0 Z " fill="#C3D1DB" transform="translate(187,53)"/>
<path d="" fill="#FFFFFF" transform="translate(0,0)"/>
<path d="" fill="#FFFFFF" transform="translate(0,0)"/>
<path d="" fill="#FFFFFF" transform="translate(0,0)"/>
<path d="" fill="#FFFFFF" transform="translate(0,0)"/>
<path d="" fill="#FFFFFF" transform="translate(0,0)"/>
<path d="" fill="#FFFFFF" transform="translate(0,0)"/>
<path d="" fill="#FFFFFF" transform="translate(0,0)"/>
<path d="" fill="#FFFFFF" transform="translate(0,0)"/>
<path d="" fill="#FFFFFF" transform="translate(0,0)"/>
<path d="" fill="#FFFFFF" transform="translate(0,0)"/>
<path d="" fill="#FFFFFF" transform="translate(0,0)"/>
<path d="" fill="#FFFFFF" transform="translate(0,0)"/>
<path d="" fill="#FFFFFF" transform="translate(0,0)"/>
<path d="" fill="#FFFFFF" transform="translate(0,0)"/>
<path d="" fill="#FFFFFF" transform="translate(0,0)"/>
<path d="" fill="#FFFFFF" transform="translate(0,0)"/>
<path d="" fill="#FFFFFF" transform="translate(0,0)"/>
<path d="" fill="#FFFFFF" transform="translate(0,0)"/>
<path d="" fill="#FFFFFF" transform="translate(0,0)"/>
<path d="" fill="#FFFFFF" transform="translate(0,0)"/>
<path d="" fill="#FFFFFF" transform="translate(0,0)"/>
<path d="" fill="#FFFFFF" transform="translate(0,0)"/>
<path d="" fill="#FFFFFF" transform="translate(0,0)"/>
<path d="" fill="#FFFFFF" transform="translate(0,0)"/>
<path d="" fill="#FFFFFF" transform="translate(0,0)"/>
<path d="" fill="#FFFFFF" transform="translate(0,0)"/>
<path d="" fill="#FFFFFF" transform="translate(0,0)"/>
<path d="" fill="#FFFFFF" transform="translate(0,0)"/>
<path d="" fill="#FFFFFF" transform="translate(0,0)"/>
<path d="" fill="#FFFFFF" transform="translate(0,0)"/>
<path d="" fill="#FFFFFF" transform="translate(0,0)"/>
<path d="" fill="#FFFFFF" transform="translate(0,0)"/>
<path d="" fill="#FFFFFF" transform="translate(0,0)"/>
<path d="" fill="#FFFFFF" transform="translate(0,0)"/>
<path d="" fill="#FFFFFF" transform="translate(0,0)"/>
<path d="" fill="#FFFFFF" transform="translate(0,0)"/>
<path d="" fill="#FFFFFF" transform="translate(0,0)"/>
<path d="" fill="#FFFFFF" transform="translate(0,0)"/>
<path d="" fill="#FFFFFF" transform="translate(0,0)"/>
<path d="" fill="#FFFFFF" transform="translate(0,0)"/>
</svg>
